<svg width="149" height="148" viewBox="0 0 149 148" fill="none" xmlns="http://www.w3.org/2000/svg">
<ellipse cx="74.5" cy="74" rx="74.5" ry="74" fill="url(#paint0_linear_593_768)"/>
<path d="M73.5001 61.2012C65.9738 61.2012 59.8317 67.4018 59.8317 74.9999C59.8317 82.5979 65.9738 88.7985 73.5001 88.7985C81.0265 88.7985 87.1686 82.5979 87.1686 74.9999C87.1686 67.4018 81.0265 61.2012 73.5001 61.2012ZM114.495 74.9999C114.495 69.2858 114.547 63.6235 114.229 57.9198C113.911 51.2948 112.414 45.4151 107.615 40.5706C102.806 35.7157 96.9918 34.2147 90.4293 33.8938C84.7692 33.5729 79.1603 33.6247 73.5104 33.6247C67.8502 33.6247 62.2413 33.5729 56.5914 33.8938C50.0289 34.2147 44.2047 35.726 39.4059 40.5706C34.5968 45.4254 33.11 51.2948 32.7921 57.9198C32.4742 63.6338 32.5255 69.2961 32.5255 74.9999C32.5255 80.7036 32.4742 86.3762 32.7921 92.0799C33.11 98.7049 34.6071 104.585 39.4059 109.429C44.215 114.284 50.0289 115.785 56.5914 116.106C62.2516 116.427 67.8605 116.375 73.5104 116.375C79.1705 116.375 84.7794 116.427 90.4293 116.106C96.9918 115.785 102.816 114.274 107.615 109.429C112.424 104.574 113.911 98.7049 114.229 92.0799C114.557 86.3762 114.495 80.7139 114.495 74.9999ZM73.5001 96.2309C61.8619 96.2309 52.4694 86.7489 52.4694 74.9999C52.4694 63.2508 61.8619 53.7688 73.5001 53.7688C85.1383 53.7688 94.5309 63.2508 94.5309 74.9999C94.5309 86.7489 85.1383 96.2309 73.5001 96.2309ZM95.3922 57.8577C92.6749 57.8577 90.4806 55.6424 90.4806 52.8993C90.4806 50.1561 92.6749 47.9409 95.3922 47.9409C98.1095 47.9409 100.304 50.1561 100.304 52.8993C100.305 53.5506 100.178 54.1958 99.9316 54.7977C99.6851 55.3997 99.3233 55.9466 98.8671 56.4072C98.4108 56.8678 97.869 57.233 97.2728 57.4819C96.6765 57.7308 96.0374 57.8585 95.3922 57.8577Z" fill="white"/>
<defs>
<linearGradient id="paint0_linear_593_768" x1="18.1087" y1="1.35753e-05" x2="156.2" y2="42.8221" gradientUnits="userSpaceOnUse">
<stop stop-color="#EC6608"/>
<stop offset="1" stop-color="#FF9B06"/>
</linearGradient>
</defs>
</svg>
