<svg width="86" height="86" viewBox="0 0 86 86" fill="none" xmlns="http://www.w3.org/2000/svg">
<circle cx="43" cy="43" r="43" fill="url(#paint0_linear_593_732)"/>
<path d="M65.2241 56.4596L54.5796 46.7813C54.0764 46.3239 53.4152 46.08 52.7356 46.101C52.056 46.1221 51.4111 46.4063 50.9371 46.8939L44.6708 53.3382C43.1625 53.0502 40.1302 52.1049 37.0088 48.9914C33.8875 45.8674 32.9422 42.8272 32.662 41.3294L39.1011 35.0605C39.5892 34.5868 39.8739 33.9419 39.895 33.262C39.916 32.5822 39.6716 31.9209 39.2137 31.418L29.538 20.7761C29.0799 20.2716 28.4431 19.9656 27.763 19.9231C27.0829 19.8805 26.413 20.1048 25.8955 20.5482L20.2132 25.4214C19.7605 25.8758 19.4903 26.4805 19.4538 27.1209C19.4145 27.7755 18.6656 43.2828 30.6902 55.3126C41.1803 65.8001 54.3203 66.5673 57.9392 66.5673C58.4682 66.5673 58.7929 66.5516 58.8793 66.5464C59.5196 66.5105 60.124 66.2391 60.5762 65.7844L65.4467 60.0994C65.8919 59.5836 66.1178 58.9143 66.0763 58.2342C66.0347 57.5541 65.7289 56.9173 65.2241 56.4596Z" fill="white"/>
<defs>
<linearGradient id="paint0_linear_593_732" x1="10.452" y1="7.88837e-06" x2="90.2493" y2="24.5791" gradientUnits="userSpaceOnUse">
<stop stop-color="#EC6608"/>
<stop offset="1" stop-color="#FF9B06"/>
</linearGradient>
</defs>
</svg>
