<svg width="86" height="86" viewBox="0 0 86 86" fill="none" xmlns="http://www.w3.org/2000/svg">
<circle cx="43" cy="43" r="43" fill="url(#paint0_linear_593_736)"/>
<g clip-path="url(#clip0_593_736)">
<path d="M21.0987 28.6269L40.6692 48.1996C41.2481 48.779 42.0215 49.1229 42.8395 49.1649C43.6574 49.2068 44.4619 48.9438 45.0971 48.4267L45.3485 48.1996L64.9058 28.6401C64.9697 28.8827 65.0116 29.1297 65.0337 29.3832L65.0513 29.7691V56.2307C65.0516 57.3433 64.6314 58.415 63.8749 59.2309C63.1183 60.0467 62.0813 60.5465 60.9718 60.6299L60.641 60.6409H25.359C24.2463 60.6413 23.1747 60.2211 22.3588 59.4645C21.5429 58.708 21.0432 57.671 20.9598 56.5614L20.9487 56.2307V29.7691C20.9487 29.5045 20.9708 29.2487 21.0149 28.9973L21.0987 28.6269ZM60.641 25.3589C60.9079 25.3589 61.1703 25.3809 61.4239 25.4272L61.7987 25.5132L43.011 44.3009L24.2167 25.5088C24.4593 25.4427 24.7107 25.3986 24.9665 25.3765L25.359 25.3589H60.641Z" fill="white"/>
</g>
<defs>
<linearGradient id="paint0_linear_593_736" x1="10.452" y1="7.88837e-06" x2="90.2493" y2="24.5791" gradientUnits="userSpaceOnUse">
<stop stop-color="#EC6608"/>
<stop offset="1" stop-color="#FF9B06"/>
</linearGradient>
<clipPath id="clip0_593_736">
<rect width="52.9231" height="52.9231" fill="white" transform="translate(16.5386 16.5386)"/>
</clipPath>
</defs>
</svg>
