<svg width="54" height="54" viewBox="0 0 54 54" fill="none" xmlns="http://www.w3.org/2000/svg">
<g clip-path="url(#clip0_593_710)">
<path d="M18.9946 30.8804C17.5713 29.3544 16.7343 27.5241 16.3792 25.4993C16.2819 24.9498 16.072 24.8117 15.6351 24.6187C14.1851 23.979 12.9393 22.5657 12.9605 20.7044C12.9957 17.5101 12.9252 14.3144 12.9887 11.1201C13.0211 9.50532 13.565 7.98778 14.2893 6.5407C15.2011 4.71881 16.5652 3.30837 18.2308 2.18114C19.9402 1.02432 21.8383 0.345159 23.8915 0.104213C23.9648 0.0957588 24.0268 0.0830775 24.0423 -0.00146484H26.8889C27.5935 0.290206 28.3615 0.309933 29.0858 0.522698C30.5584 0.955272 31.9478 1.57243 33.0949 2.5968C33.7248 3.15901 34.4477 3.30837 35.2087 3.47886C37.4479 3.97907 39.0868 5.30779 40.1239 7.31145C40.7003 8.42459 41.0117 9.66313 41.0145 10.9425C41.023 14.0692 41.0244 17.1944 41.0145 20.3211C41.0089 22.2867 39.9943 23.9973 38.0214 24.6835C37.5395 24.8512 37.6311 25.364 37.5522 25.7304C37.3802 26.5321 37.0604 27.2733 36.7715 28.0328C36.3628 29.1079 35.6469 29.9744 34.9874 30.8833C34.3745 31.4384 33.7868 32.0189 33.1287 32.5248C32.6482 32.894 32.0592 33.0926 31.6153 33.5139C31.232 33.4759 30.9431 33.7281 30.6147 33.8521C29.8101 34.1536 28.9604 34.2607 28.136 34.4735C27.3722 34.4735 26.607 34.4763 25.8432 34.4777C25.6333 34.2452 25.3486 34.396 25.1034 34.3453C24.1226 34.141 23.1996 33.7746 22.2681 33.4266C21.0858 32.6967 19.9416 31.9147 18.996 30.8818L18.9946 30.8804ZM38.6964 16.7238C38.6964 14.9837 38.688 13.3506 38.7007 11.7175C38.7063 10.989 38.6443 10.2662 38.4836 9.56027C37.9552 7.23254 35.9457 5.71078 33.6079 5.59805C33.2062 5.57833 32.8638 5.4797 32.5763 5.21339C30.9755 3.73531 29.1619 2.76448 26.9466 2.49958C25.5403 2.33049 24.1649 2.31359 22.8163 2.67571C19.702 3.51127 17.3346 5.29229 16.0367 8.32032C15.6619 9.19674 15.3335 10.114 15.3054 11.0694C15.2518 12.9124 15.2899 14.7582 15.2899 16.6238C15.7521 16.4674 16.1875 16.2814 16.6666 16.2335C18.1561 16.0813 19.6485 16.1954 21.1394 16.1644C22.1906 16.1419 23.2546 16.2335 24.2931 16.1081C25.6586 15.9432 26.9156 15.3796 28.1374 14.7413C29.0069 14.2876 29.6283 13.5408 30.4034 12.98C30.5795 12.8518 30.781 12.7222 30.8881 12.5432C31.3644 11.7541 31.9817 11.0581 32.3833 10.2197C32.6116 9.74486 33.047 9.63495 33.5304 9.70259C33.9799 9.76458 34.3139 9.97171 34.49 10.4325C34.7423 11.0933 34.328 11.5977 34.094 12.1106C33.3725 13.693 34.2223 15.7685 36.0838 16.1363C36.9335 16.3039 37.8396 16.187 38.6978 16.7224L38.6964 16.7238ZM20.4475 18.5556C20.4475 18.5556 20.4475 18.5443 20.4475 18.5387C19.3582 18.5387 18.2689 18.5218 17.1796 18.5443C16.2918 18.5626 15.5801 19.1615 15.3237 20.0449C15.101 20.8114 15.4745 21.7231 16.1368 22.2233C16.5793 22.5572 17.0542 22.5742 17.5601 22.5657C17.987 22.5587 18.7466 23.1209 18.6423 23.3956C18.3281 24.2255 18.724 24.9836 18.8621 25.7431C19.1059 27.0915 19.7866 28.2822 20.711 29.2896C22.1047 30.8058 23.7929 31.7808 25.8841 32.0739C27.585 32.312 29.183 32.0485 30.657 31.2595C33.1499 29.9237 34.7056 27.8327 35.3412 25.0541C35.4511 24.575 35.3355 24.0973 35.4454 23.6507C35.6174 22.9475 35.8781 22.6573 36.9068 22.5643C38.0848 22.4572 38.7176 21.3596 38.6697 20.4479C38.6401 19.8758 38.416 19.3122 37.896 18.9896C37.4648 18.7233 37.0702 18.4781 36.446 18.5105C35.2115 18.5739 34.1039 18.0497 33.1752 17.193C32.6059 16.6675 32.1733 16.0531 31.8661 15.3486C31.7646 15.1175 31.6914 14.9738 31.4363 15.2133C30.3118 16.2715 29.0069 17.0423 27.5765 17.6143C26.2984 18.1258 24.9766 18.4626 23.6069 18.5429C22.557 18.6035 21.5015 18.5556 20.4489 18.5556H20.4475Z" fill="url(#paint0_linear_593_710)"/>
<path d="M0 43.3321C0.39739 43.2123 0.136691 42.8713 0.187422 42.6557C0.576357 41.0311 1.43173 39.7291 2.69718 38.6569C3.42432 38.0411 4.21346 37.5494 5.12803 37.3084C6.06372 37.0618 7.01915 36.8899 7.96894 36.6969C9.08784 36.4686 10.2067 36.2474 11.3284 36.0346C12.0147 35.9036 12.677 35.6486 13.3887 35.6514C13.0899 36.0191 12.9236 36.4207 12.9617 36.9153C12.9899 37.2746 13.3675 37.4155 13.4084 37.748C13.3887 37.9481 13.2943 38.0383 13.0787 38.0693C12.6094 38.1383 12.1444 38.2454 11.6793 38.3412C10.249 38.6343 8.81868 38.933 7.38836 39.2205C6.34133 39.4318 5.26754 39.5516 4.39948 40.2744C3.17912 41.289 2.36461 42.5402 2.33361 44.1563C2.28711 46.508 2.33079 48.8611 2.31247 51.2128C2.30965 51.582 2.39984 51.675 2.77046 51.6722C5.2464 51.6538 7.72093 51.6651 10.1969 51.6623C12.918 51.6595 15.6391 51.6524 18.3603 51.6468C19.2706 51.6468 20.1824 51.6468 21.0927 51.6468C21.545 51.6468 21.996 51.6468 22.4483 51.6468C23.1501 51.6257 23.8603 51.7764 24.5551 51.5608C24.6058 51.6947 24.7228 51.6623 24.82 51.6623C26.2348 51.6637 27.6496 51.6637 29.0645 51.6623C29.1631 51.6623 29.2801 51.6947 29.3294 51.5608C30.0551 51.7821 30.7963 51.6228 31.5305 51.6468C32.0181 51.6285 32.5155 51.775 32.9904 51.5594C33.044 51.6891 33.1595 51.6623 33.2596 51.6623C34.0502 51.6595 34.8407 51.6524 35.6313 51.6482C40.8664 51.6538 46.1029 51.6567 51.338 51.6722C51.6396 51.6722 51.6791 51.5594 51.672 51.3072C51.603 48.909 51.7523 46.5108 51.5818 44.1113C51.486 42.7642 50.9914 41.6285 50.0416 40.7422C49.2778 40.0307 48.3914 39.5107 47.2641 39.3698C45.7168 39.1768 44.1794 38.8344 42.6673 38.4455C41.943 38.2595 41.1637 38.2327 40.4958 37.8368C40.5324 37.7241 40.5493 37.6015 40.6085 37.5015C41.0806 36.6941 41.0608 36.3207 40.4972 35.6528C41.151 35.6669 41.7654 35.8937 42.3996 36.0149C44.4373 36.408 46.4778 36.7927 48.507 37.2253C49.5427 37.4465 50.4658 37.9735 51.2563 38.6611C52.4612 39.7108 53.3659 40.9818 53.7097 42.5796C53.8506 43.2334 53.9929 43.89 53.9929 44.5678C53.9901 47.2562 53.9718 49.9447 54.0042 52.6317C54.0127 53.3644 53.4786 54.0041 52.6274 54.0027C35.5312 53.9759 18.435 53.9802 1.33873 53.9957C0.745459 53.9957 0.322703 53.8266 0.00563674 53.3503V43.3349L0 43.3321Z" fill="url(#paint1_linear_593_710)"/>
<path d="M31.5291 51.6426C30.7949 51.6186 30.0551 51.7778 29.328 51.5566C29.3266 51.3847 29.2026 51.2537 29.2265 51.0564C29.4083 49.5515 29.7465 48.0735 29.8747 46.5573C29.9889 45.1976 30.2735 43.8548 30.4596 42.5007C30.5032 42.1865 30.5497 41.861 30.2566 41.575C29.2533 40.5929 28.2711 39.5896 27.2917 38.5836C27.0648 38.3497 26.8985 38.3004 26.6449 38.5596C25.6373 39.5882 24.6185 40.6041 23.5912 41.6144C23.4164 41.7863 23.3728 41.9737 23.4207 42.1837C23.6208 43.0742 23.6518 43.9887 23.8096 44.889C24.1055 46.5912 24.3099 48.313 24.5396 50.0278C24.6058 50.5196 24.827 51.0479 24.5537 51.558C23.8589 51.7722 23.1501 51.6228 22.4469 51.644C22.2961 51.124 22.2919 50.583 22.2172 50.0518C22.0214 48.6596 21.8086 47.2703 21.6282 45.8768C21.5521 45.2836 21.5507 44.6636 21.4535 44.0943C21.2886 43.1334 21.111 42.1865 21.042 41.2072C21.0194 40.8845 21.0307 40.5154 20.9194 40.1927C20.7404 39.6685 20.6446 39.1289 20.5671 38.5864C20.4572 37.8143 20.3613 37.0393 20.2895 36.2629C20.212 35.4161 19.885 34.6059 19.9343 33.7407C19.9414 33.6111 19.9964 33.4279 19.847 33.3589C19.6948 33.287 19.599 33.4589 19.5003 33.542C18.3786 34.5002 17.2682 35.471 16.1436 36.4263C15.8787 36.6504 15.859 36.8167 16.1225 37.0576C16.7834 37.6607 17.3584 38.3511 18.0559 38.9189C18.473 39.2585 18.6238 39.9208 18.3589 40.2364C18.0249 40.6337 17.76 41.0818 17.364 41.4355C16.8271 41.9146 16.3353 42.4429 15.8322 42.9587C15.7364 43.0559 15.5278 43.132 15.6716 43.3377C16.3296 44.2874 16.906 45.2948 17.5627 46.2389C18.7929 48.0072 19.9724 49.8066 21.0913 51.6454C20.181 51.6454 19.2692 51.6454 18.3589 51.6454C18.3011 51.5383 18.2504 51.427 18.1841 51.3255C16.5706 48.878 14.9557 46.4319 13.3379 43.9858C12.794 43.163 12.8292 42.6966 13.5169 41.9977C14.1454 41.3594 14.7781 40.7267 15.4179 40.0997C15.5814 39.9391 15.6532 39.8193 15.4461 39.6333C14.7584 39.0148 14.1976 38.2595 13.4112 37.7466C13.3704 37.4141 12.9927 37.2732 12.9645 36.9139C12.9265 36.4193 13.0913 36.0177 13.3915 35.65C14.2286 35.1244 14.912 34.4114 15.6589 33.7774C16.782 32.8248 17.8854 31.847 18.9986 30.8804C19.9456 31.9146 21.0885 32.6952 22.2708 33.4251C22.2651 33.5477 22.2398 33.6731 22.2595 33.7914C22.3948 34.5749 22.5019 35.3597 22.5836 36.153C22.6752 37.0505 22.8655 37.9368 23.0289 38.9203C23.5855 38.3638 24.0365 37.8199 24.5776 37.3901C25.533 36.6307 26.0784 35.7345 25.8487 34.4791C26.6125 34.4791 27.3777 34.4762 28.1414 34.4748C27.8934 35.7824 28.4867 36.7053 29.4745 37.4704C29.7902 37.7156 30.0438 38.0397 30.3355 38.3173C30.53 38.5019 30.6864 38.7372 30.95 38.8583C31.0726 38.0312 31.2219 37.2492 31.2966 36.4588C31.3896 35.4752 31.6475 34.5115 31.6207 33.5153C32.0646 33.094 32.6523 32.8953 33.1342 32.5261C33.7923 32.0203 34.3799 31.4398 34.9929 30.8846C36.0977 31.8498 37.1997 32.8164 38.3087 33.7774C39.0345 34.4072 39.7672 35.0272 40.4972 35.6514C41.0609 36.3193 41.0806 36.6927 40.6085 37.5C40.5507 37.6001 40.5324 37.7227 40.4958 37.8354C40.445 37.8467 40.3774 37.841 40.345 37.872C39.6827 38.4962 39.0232 39.1261 38.3637 39.7531C38.2439 39.8672 38.3411 39.9137 38.4186 39.994C39.1444 40.7296 39.8616 41.4735 40.586 42.2105C40.9763 42.6064 41.0665 43.2715 40.7649 43.7421C40.1745 44.6678 39.5685 45.5823 38.9809 46.5094C37.8874 48.2355 36.6586 49.8742 35.6327 51.6454C34.8421 51.651 34.0516 51.6567 33.261 51.6595C33.161 51.6595 33.0454 51.6862 32.9919 51.5566C33.1511 51.0522 33.4273 50.5985 33.7289 50.1814C35.279 48.0382 36.6092 45.7485 38.134 43.5899C38.3059 43.3461 38.289 43.1714 38.0678 42.9558C37.3603 42.2724 36.6557 41.5862 35.985 40.8676C35.2466 40.0758 35.2747 39.5713 36.0385 38.802C36.6318 38.2031 37.2208 37.6001 37.8296 37.0181C38.0734 36.7857 38.1086 36.6377 37.824 36.4038C36.9996 35.7218 36.2062 35.0004 35.3804 34.3198C34.9704 33.9831 34.6209 33.5604 34.0657 33.2997C33.9459 34.1916 33.8374 35.0328 33.719 35.874C33.5203 37.2802 33.2977 38.6822 33.1229 40.0913C33.0525 40.6633 32.9285 41.2241 32.9228 41.8187C32.9186 42.302 32.8115 42.8361 32.6861 43.3349C32.5607 43.8379 32.6762 44.4001 32.5212 44.8482C32.2929 45.5062 32.345 46.1811 32.1971 46.8377C32.0604 47.4436 31.8349 48.0594 31.9223 48.7273C31.9533 48.9654 31.9632 49.2881 31.8871 49.5149C31.6503 50.2124 31.6419 50.9352 31.5305 51.6454L31.5291 51.6426Z" fill="url(#paint2_linear_593_710)"/>
</g>
<defs>
<linearGradient id="paint0_linear_593_710" x1="16.3706" y1="-0.00146168" x2="43.1927" y2="6.7224" gradientUnits="userSpaceOnUse">
<stop stop-color="#EC6608"/>
<stop offset="1" stop-color="#FF9B06"/>
</linearGradient>
<linearGradient id="paint1_linear_593_710" x1="6.56342" y1="35.6514" x2="36.6812" y2="62.9513" gradientUnits="userSpaceOnUse">
<stop stop-color="#EC6608"/>
<stop offset="1" stop-color="#FF9B06"/>
</linearGradient>
<linearGradient id="paint2_linear_593_710" x1="16.3603" y1="30.8804" x2="40.6223" y2="40.9374" gradientUnits="userSpaceOnUse">
<stop stop-color="#EC6608"/>
<stop offset="1" stop-color="#FF9B06"/>
</linearGradient>
<clipPath id="clip0_593_710">
<rect width="54" height="54" fill="white"/>
</clipPath>
</defs>
</svg>
