<svg width="47" height="68" viewBox="0 0 47 68" fill="none" xmlns="http://www.w3.org/2000/svg">
<path d="M17.4801 37.38L15.2843 65.9187H26.6622L24.1784 33.6362M16.744 21.0947C16.7492 21.1666 16.7684 21.2367 16.8007 21.3011C16.9338 21.5097 17.1429 21.6582 17.3837 21.7151C18.0776 21.1203 18.9102 20.71 19.8046 20.5221C20.699 20.3342 21.6264 20.3747 22.501 20.6399C23.0355 20.0485 23.3566 19.295 23.4128 18.4998C23.4187 17.7202 23.2972 16.9448 23.0533 16.2043C22.1515 12.7723 21.0634 9.39207 19.7937 6.07855C19.4334 5.0682 18.9508 4.10572 18.3568 3.21254C18.0269 2.67654 17.524 2.26922 16.9311 2.05798C16.6331 1.96435 16.3109 1.98467 16.027 2.11499C15.7431 2.24532 15.5177 2.47638 15.3944 2.76342C15.3402 2.99381 15.3295 3.23226 15.3626 3.46659L16.744 21.0947ZM18.6244 33.237C18.6842 33.1967 18.7355 33.1451 18.7753 33.085C18.8893 32.8653 18.9133 32.6098 18.8422 32.3728C17.9801 32.0691 17.2084 31.5531 16.5984 30.8724C15.9885 30.1917 15.5599 29.3682 15.3524 28.4781C14.5729 28.3112 13.7599 28.4102 13.0433 28.7593C12.3649 29.1438 11.7539 29.6365 11.2343 30.2179C8.71341 32.7149 6.33042 35.3474 4.09593 38.1036C3.40114 38.9206 2.80887 39.8195 2.33232 40.7802C2.03299 41.334 1.93176 41.9734 2.04538 42.5926C2.18602 43.2243 2.78258 43.6474 3.42451 43.5714C3.65134 43.5033 3.86343 43.3933 4.05056 43.247L18.6244 33.237ZM28.2001 25.5372C28.1352 25.5056 28.0646 25.4871 27.9925 25.4828C27.7454 25.494 27.5123 25.601 27.3427 25.7811C27.5105 26.6791 27.4494 27.605 27.1649 28.4732C26.8805 29.3414 26.3819 30.124 25.7152 30.7486C25.9601 31.5085 26.4524 32.1629 27.1124 32.6087C27.7848 33.0042 28.5173 33.2873 29.2809 33.4468C32.7037 34.3814 36.1748 35.1288 39.6788 35.6856C40.7336 35.8784 41.8088 35.9431 42.8794 35.875C43.5085 35.8572 44.1127 35.6251 44.592 35.2172C45.0683 34.7794 45.1364 34.0524 44.7496 33.5341C44.5772 33.3718 44.3761 33.2429 44.1565 33.1542C38.8373 30.6137 33.5193 28.0754 28.2001 25.5372Z" stroke="url(#paint0_linear_593_783)" stroke-width="2.52328" stroke-linecap="round" stroke-linejoin="round"/>
<path d="M21.2012 28.5377C22.268 28.5377 23.1327 27.673 23.1327 26.6063C23.1327 25.5396 22.268 24.6748 21.2012 24.6748C20.1345 24.6748 19.2698 25.5396 19.2698 26.6063C19.2698 27.673 20.1345 28.5377 21.2012 28.5377Z" stroke="url(#paint1_linear_593_783)" stroke-width="2.52328" stroke-linecap="round" stroke-linejoin="round"/>
<defs>
<linearGradient id="paint0_linear_593_783" x1="7.22601" y1="2.00001" x2="49.1116" y2="10.6793" gradientUnits="userSpaceOnUse">
<stop stop-color="#EC6608"/>
<stop offset="1" stop-color="#FF9B06"/>
</linearGradient>
<linearGradient id="paint1_linear_593_783" x1="19.7393" y1="24.6748" x2="23.3236" y2="25.7788" gradientUnits="userSpaceOnUse">
<stop stop-color="#EC6608"/>
<stop offset="1" stop-color="#FF9B06"/>
</linearGradient>
</defs>
</svg>
