<svg width="45" height="64" viewBox="0 0 45 64" fill="none" xmlns="http://www.w3.org/2000/svg">
<path fill-rule="evenodd" clip-rule="evenodd" d="M18.8469 33.8368L2.07817 2.29619C1.98183 2.11501 1.92213 1.91662 1.90246 1.71236C1.88279 1.50811 1.90355 1.30197 1.96354 1.10574C2.08471 0.709421 2.35835 0.377469 2.72426 0.182908C3.09018 -0.0116532 3.5184 -0.052886 3.91471 0.0682801C4.11095 0.128275 4.29345 0.226335 4.45179 0.35686C4.61013 0.487385 4.74121 0.647819 4.83754 0.829002L21.6079 32.3696L23.986 31.104C24.7108 30.7187 25.5044 30.4799 26.3215 30.4013C27.1386 30.3227 27.9632 30.4059 28.7482 30.646C29.5332 30.8861 30.2631 31.2785 30.8964 31.8008C31.5297 32.3231 32.0539 32.965 32.4391 33.6899L33.4516 35.5931L44.1844 51.304L21.9204 63.1415L14.8969 45.4571L13.886 43.554C13.5006 42.8293 13.2617 42.0357 13.183 41.2187C13.1043 40.4017 13.1873 39.5771 13.4273 38.7922C13.6673 38.0072 14.0596 37.2772 14.5817 36.6438C15.1038 36.0105 15.7456 35.4862 16.4704 35.1009L18.8469 33.8368ZM17.936 37.8603L25.4516 33.8649C25.814 33.6722 26.2107 33.5528 26.6193 33.5135C27.0278 33.4741 27.4401 33.5156 27.8325 33.6356C28.225 33.7556 28.59 33.9517 28.9067 34.2128C29.2234 34.4739 29.4855 34.7947 29.6782 35.1571L30.6907 37.0587L17.6547 43.9899L16.6438 42.0868C16.4511 41.7245 16.3317 41.3277 16.2923 40.9192C16.253 40.5106 16.2945 40.0984 16.4145 39.7059C16.5345 39.3134 16.7306 38.9484 16.9916 38.6317C17.2527 38.3151 17.5736 38.0529 17.936 37.8603ZM19.2329 47.9103L23.5344 58.7431L26.4 57.2196L23.0172 50.6337L25.7985 49.2056L29.161 55.7524L39.6329 50.1837L33.0579 40.5587L19.2329 47.9103Z" fill="url(#paint0_linear_593_715)"/>
<path d="M9.9375 48.8819C10.0952 48.7506 10.2772 48.6516 10.4731 48.5906C10.6691 48.5296 10.8751 48.5078 11.0795 48.5265C11.2838 48.5451 11.4825 48.6038 11.6642 48.6993C11.8459 48.7947 12.007 48.925 12.1383 49.0827C12.2696 49.2404 12.3686 49.4224 12.4296 49.6183C12.4905 49.8142 12.5123 50.0203 12.4937 50.2246C12.475 50.429 12.4163 50.6277 12.3209 50.8094C12.2255 50.991 12.0952 51.1521 11.9375 51.2835L11.9359 51.285L11.9328 51.2881L11.9281 51.2913L11.9125 51.3038L11.8656 51.3428L11.7047 51.4663C11.5687 51.5678 11.3766 51.7069 11.1313 51.8725C10.6391 52.2006 9.92812 52.6288 9.03125 53.0569C6.69975 54.1755 4.14845 54.761 1.5625 54.771C1.1481 54.771 0.750672 54.6063 0.457646 54.3133C0.16462 54.0203 0 53.6229 0 53.2085C0 52.7941 0.16462 52.3966 0.457646 52.1036C0.750672 51.8106 1.1481 51.646 1.5625 51.646C3.68355 51.6358 5.77577 51.1539 7.6875 50.235C8.27944 49.9546 8.85067 49.6324 9.39687 49.271C9.5767 49.1521 9.75233 49.027 9.92344 48.896L9.93906 48.8803L9.9375 48.8819ZM14.9297 59.196C15.2745 58.966 15.5138 58.6084 15.5949 58.202C15.6761 57.7956 15.5925 57.3735 15.3625 57.0288C15.1325 56.684 14.775 56.4447 14.3685 56.3635C13.9621 56.2823 13.5401 56.366 13.1953 56.596L13.1922 56.5991L13.1609 56.6178L13.0266 56.7038C12.2131 57.2 11.3686 57.6436 10.4984 58.0319C8.82656 58.7725 6.71719 59.4585 4.6875 59.4585C4.2731 59.4585 3.87567 59.6231 3.58265 59.9161C3.28962 60.2091 3.125 60.6066 3.125 61.021C3.125 61.4354 3.28962 61.8328 3.58265 62.1258C3.87567 62.4188 4.2731 62.5835 4.6875 62.5835C7.34687 62.5835 9.92187 61.7069 11.7672 60.8866C12.7695 60.4401 13.7419 59.9292 14.6781 59.3569C14.7378 59.3199 14.7972 59.2824 14.8562 59.2444L14.9062 59.2116L14.9219 59.2022L14.9297 59.196Z" fill="url(#paint1_linear_593_715)"/>
<defs>
<linearGradient id="paint0_linear_593_715" x1="7.03488" y1="5.79167e-06" x2="48.243" y2="8.50109" gradientUnits="userSpaceOnUse">
<stop stop-color="#EC6608"/>
<stop offset="1" stop-color="#FF9B06"/>
</linearGradient>
<linearGradient id="paint1_linear_593_715" x1="1.89901" y1="48.52" x2="16.1086" y2="53.3829" gradientUnits="userSpaceOnUse">
<stop stop-color="#EC6608"/>
<stop offset="1" stop-color="#FF9B06"/>
</linearGradient>
</defs>
</svg>
