<svg width="72" height="53" viewBox="0 0 72 53" fill="none" xmlns="http://www.w3.org/2000/svg">
<g clip-path="url(#clip0_591_234)">
<path d="M71.3877 46.2887C71.0411 46.214 71.1697 46.5707 71.0355 46.6772C70.6443 46.9873 70.2567 47.273 69.6958 47.2656C67.7692 47.2394 65.8426 47.2618 63.916 47.2506C63.5452 47.2488 63.3831 47.3403 63.2564 47.7437C62.3508 50.5978 60.3459 52.2396 57.4616 52.8542C55.1995 53.3361 53.2915 52.5758 51.6071 51.1208C50.478 50.1458 49.7252 48.913 49.36 47.4598C49.2762 47.1255 49.034 47.2656 48.8663 47.2637C47.0794 47.245 45.2925 47.245 43.5056 47.2376C44.3329 46.8621 44.7577 46.2812 44.6348 45.3137C44.5882 44.9401 44.4428 44.4937 44.7708 44.1388C46.1403 44.1407 47.5117 44.1425 48.8812 44.1463C49.1402 44.1463 49.2762 44.1463 49.3898 43.7858C49.7588 42.6184 50.2991 41.5126 51.1749 40.6254C53.2878 38.483 55.8759 38.1206 58.6168 38.8976C61.0353 39.5831 62.552 41.324 63.2731 43.7204C63.3849 44.0921 63.5265 44.1481 63.8284 44.1463C65.1755 44.1425 66.5227 44.1388 67.8698 44.15C68.1791 44.1538 68.3245 44.0958 68.3245 43.7354C68.3133 40.3359 68.3189 36.9383 68.3152 33.5388C68.3152 33.3744 68.3971 33.1391 68.0822 33.1484C67.6686 33.1634 67.281 33.0046 66.8581 33.0065C59.4963 33.0214 52.1326 33.0158 44.7708 33.0158C44.7708 31.9885 44.7708 30.9631 44.7708 29.9357C46.3974 29.9357 48.0222 29.9171 49.6488 29.9469C50.1147 29.9563 50.2209 29.8143 50.2134 29.3679C50.1873 27.5748 50.2004 25.7817 50.2004 23.9904C50.2004 23.4301 50.6513 22.7277 51.0966 22.6829C52.3413 22.5559 53.3307 22.8081 53.3102 24.5041C53.2915 26.088 53.3288 27.6719 53.2934 29.254C53.2822 29.79 53.4089 29.9526 53.9698 29.9488C58.2665 29.9227 62.5632 29.9376 66.8618 29.9283C67.0723 29.9283 67.3295 30.0572 67.4972 29.8013C67.8587 29.975 68.2462 29.9301 68.6263 29.9339C69.3698 29.9413 70.1244 29.8498 70.8287 30.1898C71.0132 30.4307 71.1995 30.6717 71.384 30.9108V46.285L71.3877 46.2887ZM56.3343 41.677C54.0704 41.4585 52.3543 43.4664 52.263 45.6723C52.1699 47.895 54.212 49.7535 56.0548 49.8058C58.7696 49.8824 60.454 47.8558 60.4913 45.7395C60.5304 43.571 58.5758 41.4529 56.3343 41.6789V41.677Z" fill="url(#paint0_linear_591_234)"/>
<path d="M44.7746 29.9374C44.7746 30.9647 44.7746 31.9901 44.7746 33.0175C44.7746 36.7251 44.7746 40.4309 44.7746 44.1386C44.4448 44.4935 44.5901 44.9399 44.6385 45.3135C44.7597 46.281 44.3367 46.8619 43.5094 47.2373C36.5836 47.2373 29.6578 47.2355 22.7339 47.2336C22.6649 46.21 22.9873 45.1902 22.7562 44.1647C28.7504 44.1685 34.7464 44.1703 40.7406 44.1741C41.3691 44.1741 41.6834 43.8528 41.6834 43.2103C41.6834 30.1428 41.6834 17.0773 41.6834 4.00988C41.6834 3.0853 41.6834 3.07409 40.7368 3.07409C28.3982 3.07222 16.0615 3.07409 3.72283 3.06101C3.20484 3.06101 3.05764 3.1955 3.05764 3.72223C3.07254 16.9988 3.07068 30.2736 3.0595 43.5502C3.0595 44.0284 3.17875 44.1946 3.67625 44.1853C5.32525 44.1554 6.97611 44.1722 8.62511 44.1722C8.42574 45.1995 8.47791 46.225 8.62511 47.2523C6.37241 47.2523 4.11784 47.2523 1.86514 47.2485C0.570163 47.2467 0 46.6732 0 45.3714C0 30.8414 0 16.3115 0 1.78154C0 0.554372 0.473273 0.0313763 1.63037 0.0295085C9.75985 0.0145658 17.8893 0.00335871 26.0188 -0.000376977C31.6161 -0.00224482 37.2152 0.0201693 42.8125 0.00896223C44.7093 0.00522655 44.6758 0.765438 44.7261 2.46144C44.81 5.30056 44.7485 8.14154 44.7485 10.9825C44.7485 11.9613 44.7988 12.9419 44.7317 13.915C44.6833 14.6267 44.9497 14.7425 45.5925 14.7406C51.1675 14.7163 56.7424 14.735 62.3173 14.7201C63.5601 14.7163 64.4154 15.06 64.9352 16.3619C66.124 19.3393 67.4544 22.2606 68.7717 25.1856C69.4686 26.7322 69.9884 28.3535 70.7859 29.8552C70.8362 29.9505 70.8176 30.0812 70.8325 30.1951C70.1282 29.8552 69.3736 29.9467 68.6301 29.9393C68.2481 29.9355 67.8624 29.9803 67.501 29.8066C67.3724 29.5601 67.2308 29.3191 67.119 29.0651C65.8016 26.0635 64.4955 23.0581 63.167 20.0621C62.8502 19.3467 62.7515 18.3941 62.1217 17.9944C61.4677 17.5797 60.5435 17.8039 59.7329 17.8039C54.9704 17.8039 50.2079 17.8039 45.4453 17.8039C45.1193 17.8039 44.7392 17.6806 44.7429 18.2727C44.7671 22.1616 44.7671 26.0504 44.7746 29.9393V29.9374Z" fill="url(#paint1_linear_591_234)"/>
<path d="M22.7543 44.1671C22.9835 45.1926 22.663 46.2124 22.732 47.236C22.3053 48.3044 22.0258 49.4382 21.1966 50.3142C19.7898 51.8028 18.1911 52.7517 16.0502 52.8918C12.3069 53.1365 9.33871 50.4356 8.62694 47.2546C8.47788 46.2273 8.42757 45.2019 8.62694 44.1746C9.15798 42.0733 10.2592 40.4314 12.2268 39.3854C13.505 38.7055 14.8354 38.5767 16.2384 38.5897C17.9228 38.6065 19.2979 39.2864 20.5221 40.3717C21.6773 41.3952 22.3537 42.699 22.7562 44.1671H22.7543ZM15.618 41.6773C13.4118 41.3934 11.6529 43.6759 11.5523 45.4018C11.407 47.8729 13.5572 49.9425 15.7763 49.8099C17.9787 49.6791 19.8867 48.0485 19.8234 45.2934C19.7842 43.6068 18.2116 41.5633 15.618 41.6754V41.6773Z" fill="url(#paint2_linear_591_234)"/>
<path d="M32.4396 18.0079C32.4396 21.4709 32.4396 24.8218 32.4396 28.1746C32.4396 28.4734 32.4229 28.7686 32.367 29.0693C32.1881 30.0163 31.685 30.4888 30.7459 30.4888C25.0778 30.4926 19.4097 30.4926 13.7416 30.4888C12.9255 30.4888 12.2957 29.794 12.2957 28.9311C12.2976 25.3224 12.2957 21.7156 12.2957 18.0584C11.9026 18.1275 11.6175 18.3143 11.3212 18.5141C10.4641 19.0875 9.40207 19.0352 8.95861 18.4282C8.37168 17.6269 8.57105 16.495 9.42443 15.9776C13.0615 13.7754 16.7061 11.5844 20.3488 9.39158C21.0755 8.95264 21.7481 8.33251 22.7003 8.55665C23.4661 8.73597 24.0661 9.25896 24.7201 9.65121C28.1709 11.7189 31.5937 13.8314 35.0333 15.9178C35.8401 16.4072 36.1308 16.9675 35.9705 17.8641C35.8308 18.6486 34.6812 19.2202 33.9265 18.8522C33.4477 18.6187 32.9968 18.3273 32.4396 18.0061V18.0079ZM23.8555 27.3808C25.4803 27.3882 27.1051 27.3808 28.7298 27.4125C29.1864 27.4219 29.3186 27.2967 29.3168 26.8335C29.2981 23.3892 29.3037 19.943 29.3112 16.4987C29.3112 16.2036 29.2534 16.0056 28.9665 15.8375C26.8796 14.6103 24.7983 13.3719 22.7357 12.1037C22.4077 11.902 22.2158 11.887 21.8842 12.0925C19.8737 13.3439 17.8483 14.5711 15.8117 15.7815C15.5267 15.9514 15.4279 16.1326 15.4298 16.4371C15.4335 19.9281 15.4354 23.4209 15.4279 26.9119C15.4279 27.2481 15.495 27.4181 15.8863 27.4106C17.5111 27.3845 19.1358 27.3882 20.7606 27.3808C21.791 27.3808 22.8233 27.3808 23.8537 27.3808H23.8555Z" fill="url(#paint3_linear_591_234)"/>
<path d="M20.7625 27.3807C20.7774 25.7089 20.7811 24.0353 20.8128 22.3636C20.837 21.0954 21.8246 20.4267 22.9891 20.8638C23.6114 21.0972 23.8704 21.5829 23.8686 22.2217C23.8686 23.942 23.8593 25.6604 23.8537 27.3807C22.8233 27.3807 21.791 27.3807 20.7606 27.3807H20.7625Z" fill="url(#paint4_linear_591_234)"/>
</g>
<defs>
<linearGradient id="paint0_linear_591_234" x1="46.8943" y1="22.6548" x2="73.1191" y2="30.0772" gradientUnits="userSpaceOnUse">
<stop stop-color="#EC6608"/>
<stop offset="1" stop-color="#FF9B06"/>
</linearGradient>
<linearGradient id="paint1_linear_591_234" x1="8.60864" y1="-0.000483947" x2="67.9228" y2="27.3863" gradientUnits="userSpaceOnUse">
<stop stop-color="#EC6608"/>
<stop offset="1" stop-color="#FF9B06"/>
</linearGradient>
<linearGradient id="paint2_linear_591_234" x1="10.2387" y1="38.5889" x2="23.543" y2="42.6938" gradientUnits="userSpaceOnUse">
<stop stop-color="#EC6608"/>
<stop offset="1" stop-color="#FF9B06"/>
</linearGradient>
<linearGradient id="paint3_linear_591_234" x1="11.9517" y1="8.50928" x2="36.205" y2="17.8175" gradientUnits="userSpaceOnUse">
<stop stop-color="#EC6608"/>
<stop offset="1" stop-color="#FF9B06"/>
</linearGradient>
<linearGradient id="paint4_linear_591_234" x1="21.1383" y1="20.73" x2="24.2317" y2="21.1752" gradientUnits="userSpaceOnUse">
<stop stop-color="#EC6608"/>
<stop offset="1" stop-color="#FF9B06"/>
</linearGradient>
<clipPath id="clip0_591_234">
<rect width="71.3878" height="53" fill="white"/>
</clipPath>
</defs>
</svg>
