<svg width="49" height="61" viewBox="0 0 49 61" fill="none" xmlns="http://www.w3.org/2000/svg">
<g clip-path="url(#clip0_591_229)">
<path d="M25.1211 0.000126143C25.9679 0.326278 26.5402 0.956309 27.1357 1.59429C28.8211 3.40006 30.8473 4.77468 33.1116 5.84382C34.6961 6.59158 36.3617 7.08479 38.0902 7.34571C39.2844 7.52708 40.5249 7.66232 41.7108 7.46662C43.0108 7.25184 44.3291 7.15479 45.6209 6.83818C47.4585 6.38794 48.7122 7.40617 48.9024 9.06238C48.9636 9.59536 48.9901 10.1236 48.9901 10.655C48.9934 16.6053 49.0099 22.5555 48.9835 28.5074C48.9719 31.1214 48.7701 33.7163 48.1829 36.2905C47.6305 38.7136 46.8415 41.0285 45.6688 43.2352C45.0155 44.4634 44.2977 45.6376 43.474 46.7735C42.9281 47.5261 42.4385 48.3295 41.81 49.0216C40.7548 50.1846 39.6515 51.3063 38.5351 52.4168C36.7372 54.2066 34.711 55.7165 32.5972 57.1245C30.9118 58.2477 29.1933 59.328 27.3689 60.2412C25.6801 61.0876 23.907 61.2945 22.1769 60.5149C20.6338 59.8196 19.1948 58.9143 17.7641 58.0123C14.6843 56.0728 11.7914 53.9075 9.25749 51.3349C6.33154 48.3645 3.95804 45.0346 2.33546 41.2258C1.32155 38.8456 0.650025 36.3812 0.269603 33.8499C0.0860084 32.6297 0.00330802 31.3887 0.00661603 30.1445C0.0198481 23.1028 0.00330802 16.0611 0 9.01943C0 7.90415 1.12638 6.84773 2.28253 6.77455C3.10457 6.72363 3.86376 6.95592 4.64115 7.11024C6.39936 7.46026 8.16253 7.57322 9.95217 7.39662C12.7193 7.12456 15.3029 6.33225 17.6532 4.90355C18.8425 4.18124 20.035 3.45257 20.9679 2.39933C21.4723 1.82976 22.0744 1.34133 22.602 0.789255C22.9626 0.412192 23.4456 0.24832 23.8806 -0.00146484H25.1178L25.1211 0.000126143ZM46.2725 19.3545C46.2725 16.3602 46.2725 13.3644 46.2725 10.3702C46.2725 9.35353 46.2742 9.36149 45.2305 9.60173C43.3069 10.0456 41.3403 10.2158 39.3803 10.0933C37.1308 9.95334 34.9475 9.44263 32.8569 8.59145C31.5271 8.05052 30.2154 7.44753 29.051 6.64886C27.5475 5.61631 26.0804 4.51216 24.8994 3.1105C24.6414 2.80344 24.3735 2.78276 24.0476 3.13914C23.4671 3.77395 22.8419 4.37693 22.1836 4.93855C20.4485 6.41816 18.505 7.56527 16.3747 8.47372C14.1318 9.4299 11.7914 9.9072 9.3865 10.0965C7.38349 10.254 5.38711 10.009 3.43041 9.53491C2.73573 9.36626 2.73408 9.37263 2.73242 10.0536C2.73242 16.3221 2.75723 22.5889 2.71423 28.8558C2.70265 30.458 2.7655 32.0521 3.0103 33.624C3.31794 35.6016 3.80918 37.5442 4.55183 39.4311C5.99082 43.0872 8.15757 46.301 10.8668 49.1791C11.9056 50.2832 13.0617 51.2888 14.2559 52.2497C16.9999 54.458 19.9457 56.3751 23.09 58.0154C23.4108 58.1825 23.7383 58.297 24.1237 58.3384C25.0698 58.4418 25.8555 58.0584 26.608 57.6447C30.4685 55.5271 34.0742 53.0882 37.2036 50.0144C38.7336 48.5125 40.1312 46.9215 41.3486 45.1889C42.8008 43.1206 43.9139 40.8917 44.7409 38.5099C45.3612 36.7233 45.7317 34.9048 46.0277 33.0624C46.2725 31.5382 46.1998 29.9902 46.2461 28.4565C46.3354 25.4241 46.2725 22.3885 46.2725 19.3529V19.3545Z" fill="url(#paint0_linear_591_229)"/>
<path d="M37.6138 30.2988V31.0068C37.6138 34.4974 37.6221 37.988 37.6088 41.4786C37.6039 42.6432 37.0928 43.5358 35.9664 44.056C35.6141 44.2183 35.2469 44.2756 34.8632 44.2756C27.9759 44.2756 21.0902 44.2676 14.203 44.2756C12.7292 44.2772 11.631 43.0823 11.6343 41.687C11.6475 37.9594 11.6459 34.2301 11.6475 30.5024C11.6475 30.4642 11.626 30.426 11.6062 30.3592C11.1232 30.4515 10.7345 30.784 10.2284 30.8413C9.23596 30.9543 8.42219 30.7013 7.78871 29.9376C7.23296 29.2662 6.63752 28.625 6.10162 27.9409C5.28785 26.9004 5.47475 25.5688 6.37122 24.7462C7.44633 23.7614 8.62729 22.8927 9.74705 21.9572C10.3177 21.4799 10.8751 20.9565 11.4391 20.484C12.0991 19.9319 12.8169 19.4196 13.495 18.8691C14.1384 18.3473 14.7521 17.7888 15.3905 17.2781C16.0968 16.7117 16.8345 16.1692 17.5391 15.5917C18.4488 14.8455 19.3817 14.128 20.2947 13.3866C21.1944 12.6563 22.0264 11.829 22.9924 11.1942C24.1105 10.4592 25.5478 10.5833 26.8214 11.6715C28.2025 12.852 29.6348 13.9768 31.0457 15.1255C32.0398 15.9353 33.0289 16.7483 34.0262 17.5518C35.5033 18.7434 36.9886 19.9239 38.4623 21.1188C39.6284 22.0638 40.7862 23.0168 41.9357 23.981C42.1656 24.1735 42.4021 24.3501 42.6403 24.5298C43.5831 25.2394 43.9519 27.1391 42.9794 28.1398C42.3476 28.7889 41.7984 29.5112 41.1385 30.1444C40.3561 30.8954 39.0379 31.0927 38.1034 30.5454C37.9711 30.4674 37.8288 30.407 37.6121 30.3004L37.6138 30.2988ZM23.1379 41.6091C24.1237 41.6091 25.1111 41.6075 26.0969 41.6059C27.048 41.6711 27.9974 41.6664 28.9484 41.6091C30.7215 41.6155 32.4946 41.6027 34.2661 41.6393C34.7623 41.6489 34.8797 41.5104 34.8764 41.0459C34.8566 36.9411 34.8532 32.8348 34.8797 28.7301C34.883 28.1541 34.6912 27.8216 34.2181 27.4716C33.1943 26.7127 32.2531 25.852 31.2674 25.0469C30.0616 24.0621 28.8343 23.1027 27.6318 22.1131C26.7569 21.394 25.8124 20.756 24.997 19.9669C24.8448 19.8189 24.61 19.6296 24.3073 19.8826C22.6616 21.2476 20.9993 22.5952 19.3403 23.9475C18.2404 24.8449 17.1802 25.7963 16.0224 26.6204C14.9688 27.3698 14.0921 28.1223 14.4279 29.5367C14.4511 29.6306 14.4312 29.734 14.4312 29.8342C14.4312 33.5826 14.4312 37.3309 14.4312 41.0793C14.4312 41.372 14.3518 41.652 14.8695 41.6409C16.7038 41.6027 18.5381 41.617 20.3724 41.6107C21.2937 41.6695 22.215 41.6695 23.1363 41.6107L23.1379 41.6091ZM40.806 26.4756C40.5612 26.2768 40.328 26.0874 40.0931 25.8981C38.8774 24.9244 37.6568 23.9571 36.4477 22.9755C35.2684 22.0177 34.1073 21.0376 32.9247 20.083C31.5121 18.9423 30.0847 17.8207 28.6689 16.6847C27.3771 15.649 26.0903 14.6101 24.8068 13.5648C24.6348 13.4248 24.5058 13.4089 24.3288 13.5568C23.7912 14.0055 23.2405 14.4414 22.6996 14.8869C21.5319 15.8462 20.3707 16.8152 19.1997 17.7713C17.9476 18.7928 16.6823 19.7998 15.4286 20.8197C14.4659 21.6024 13.5232 22.4122 12.5473 23.1727C11.4292 24.043 10.3855 24.9976 9.231 25.8249C8.95478 26.0222 8.54294 26.2179 8.48339 26.4772C8.404 26.8145 8.92005 26.9911 9.09372 27.2902C9.21942 27.505 9.42783 27.637 9.56015 27.8264C9.8281 28.2114 10.0034 28.0412 10.2681 27.8121C10.9611 27.2138 11.6856 26.6475 12.4001 26.0731C13.4719 25.2108 14.5768 24.3835 15.6072 23.4798C16.5698 22.635 17.5804 21.8347 18.5877 21.0504C20.2235 19.7776 21.7667 18.4014 23.429 17.1588C24.1981 16.5845 24.7208 16.4763 25.5246 16.9965C26.1002 17.3688 26.5898 17.8413 27.1125 18.2757C28.2802 19.243 29.4893 20.1626 30.667 21.1172C31.8479 22.0734 33.0057 23.0582 34.1883 24.0128C35.6323 25.1806 37.1027 26.3181 38.5367 27.497C39.334 28.1525 39.3125 28.1796 39.9575 27.4541C40.1676 27.2186 40.371 26.9784 40.5761 26.7397C40.6257 26.6809 40.677 26.6236 40.8027 26.4772L40.806 26.4756Z" fill="url(#paint1_linear_591_229)"/>
<path d="M20.3757 41.6091C20.3839 40.3013 20.4501 38.9919 20.3823 37.6873C20.3079 36.2474 21.2622 35.0351 23.1279 35.0224C24.1997 35.0144 25.2732 34.9715 26.3417 35.0335C27.9361 35.1258 28.826 35.9626 28.9137 37.5091C28.9914 38.8726 28.9434 40.2424 28.9501 41.6091C27.999 41.6663 27.0496 41.6711 26.0985 41.6059C26.3351 40.3554 26.1631 39.0937 26.1895 37.8384C26.1945 37.6205 25.9762 37.638 25.8141 37.638C25.0549 37.6364 24.294 37.6475 23.5348 37.6332C23.2073 37.6268 23.1098 37.7573 23.1131 38.0548C23.1296 39.2385 23.1313 40.4238 23.1379 41.6091C22.2166 41.6679 21.2953 41.6663 20.374 41.6091H20.3757Z" fill="url(#paint2_linear_591_229)"/>
<path d="M20.7858 27.9218C20.5973 26.0524 22.4713 24.113 24.375 24.1687C26.8246 24.2402 28.0486 25.5003 28.3215 26.9927C28.5531 28.2575 28.4522 29.4762 27.3953 30.4101C26.7303 30.9956 25.953 31.527 25.0333 31.527C22.5308 31.527 20.8007 30.0108 20.7858 27.9234V27.9218ZM24.6728 26.7858C23.9566 26.7715 23.5199 27.1693 23.5067 27.847C23.4968 28.4245 23.9665 28.9193 24.5338 28.9289C25.2202 28.94 25.7396 28.4914 25.7545 27.8756C25.771 27.217 25.3575 26.8001 24.6744 26.7874L24.6728 26.7858Z" fill="url(#paint3_linear_591_229)"/>
</g>
<defs>
<linearGradient id="paint0_linear_591_229" x1="5.955" y1="-0.00145925" x2="52.8615" y2="11.6035" gradientUnits="userSpaceOnUse">
<stop stop-color="#EC6608"/>
<stop offset="1" stop-color="#FF9B06"/>
</linearGradient>
<linearGradient id="paint1_linear_591_229" x1="10.1982" y1="10.7305" x2="44.5903" y2="22.7207" gradientUnits="userSpaceOnUse">
<stop stop-color="#EC6608"/>
<stop offset="1" stop-color="#FF9B06"/>
</linearGradient>
<linearGradient id="paint2_linear_591_229" x1="21.4174" y1="35.0005" x2="28.9488" y2="37.9939" gradientUnits="userSpaceOnUse">
<stop stop-color="#EC6608"/>
<stop offset="1" stop-color="#FF9B06"/>
</linearGradient>
<linearGradient id="paint3_linear_591_229" x1="21.7026" y1="24.1675" x2="28.7528" y2="26.4252" gradientUnits="userSpaceOnUse">
<stop stop-color="#EC6608"/>
<stop offset="1" stop-color="#FF9B06"/>
</linearGradient>
<clipPath id="clip0_591_229">
<rect width="49" height="61" fill="white"/>
</clipPath>
</defs>
</svg>
