<svg width="95" height="89" viewBox="0 0 95 89" fill="none" xmlns="http://www.w3.org/2000/svg">
<g clip-path="url(#clip0_774_16)">
<path d="M57.6816 84.0863C66.1306 83.36 72.9788 82.0161 79.2353 79.8566C83.6744 78.3262 88.2798 76.3842 91.8798 72.6089C96.0753 68.2082 96.0405 62.953 91.7831 58.5485C89.8265 56.521 87.3749 54.8702 84.2969 53.5108C82.9629 52.9204 82.6961 52.0543 82.7038 50.9395C82.7347 47.0671 82.7309 43.1286 82.727 39.3183C82.727 38.157 82.727 36.9995 82.727 35.8382H82.7154V35.2556C82.7154 33.6748 82.7193 32.0939 82.7231 30.5131C82.7347 26.9281 82.7463 23.2188 82.6999 19.5755C82.6497 15.5671 79.3281 12.2346 75.2989 12.1491C73.9145 12.1181 72.507 12.122 71.142 12.1297C69.9974 12.1336 68.8103 12.1375 67.6425 12.122C67.2404 12.1142 66.7957 12.1647 66.3278 12.2152C65.1601 12.3434 63.9536 12.4715 63.0565 11.7763C62.1169 11.0461 61.9583 9.76432 61.8037 8.52529C61.7534 8.11746 61.707 7.72905 61.6297 7.37949C60.5585 2.2991 57.3491 -0.241094 52.3416 0.0191397C49.9751 0.143431 47.5699 0.112358 45.2459 0.0851692C43.9699 0.0696329 42.6474 0.0540965 41.3559 0.0618647C37.5896 0.0890533 34.6625 2.38455 33.7189 6.05501C33.3903 7.33676 33.0616 8.71561 32.7136 10.2731C32.497 11.2403 32.0562 12.2268 30.3471 12.1647C28.897 12.1142 27.4122 12.1336 25.9776 12.1491C24.2066 12.1686 22.3776 12.1919 20.5756 12.0909C20.4287 12.0831 20.2818 12.0792 20.1387 12.0792C18.1318 12.0792 16.2332 12.8599 14.7406 14.3009C13.074 15.9128 12.146 18.2006 12.1885 20.5737C12.3161 27.134 12.2968 33.8029 12.2774 40.2544C12.2658 43.7928 12.2581 47.4555 12.2697 51.0522C12.2736 52.299 11.8405 52.9826 10.723 53.4914C7.07657 55.1538 4.4742 56.9909 2.54079 59.2748C-0.854273 63.2754 -0.842673 68.0489 2.57173 72.0457C3.96378 73.6731 5.74252 75.0986 8.01621 76.4075C13.8976 79.7944 20.3359 81.4024 25.2893 82.4278L25.4092 82.4511C28.5142 83.092 28.7346 83.3639 28.7772 86.6071C28.7926 87.7102 29.245 88.4326 30.1576 88.8094C31.047 89.1784 31.9131 89.0075 32.5937 88.3394C34.5232 86.4362 36.5688 84.4087 38.5215 82.3812C39.3838 81.484 39.4534 80.1906 38.6801 79.3711C36.4335 76.9901 34.1056 74.7102 32.3308 72.9895C31.5419 72.2282 30.6564 72.4108 30.0493 72.6982C29.1716 73.1177 28.754 73.7586 28.7694 74.6558C28.7733 74.9277 28.7694 75.1995 28.7617 75.4714C28.7501 75.9065 28.7424 76.3182 28.781 76.7221C28.8158 77.1028 28.8197 77.6465 28.433 78C28.0425 78.3534 27.4934 78.2952 27.0564 78.2058C23.4061 77.464 18.6306 76.3609 14.0484 74.3917C10.8235 73.0089 8.25595 71.6262 6.19107 69.3773C3.91351 66.8993 3.90965 64.46 6.1756 61.9276C7.45165 60.5022 8.99065 59.5234 10.723 58.4863C10.9821 58.331 11.3803 58.1406 11.798 58.2843C12.2581 58.4436 12.4398 58.9019 12.5829 59.2709C14.1142 63.2016 16.442 64.8057 20.622 64.8057C38.4945 64.8096 56.3708 64.8096 74.2432 64.8057C78.5122 64.8057 80.7975 63.2404 82.3906 59.2204C82.5414 58.8398 82.7541 58.4319 83.1833 58.2843C83.6086 58.1406 84.0147 58.3387 84.2853 58.5019C85.9983 59.5428 87.9433 60.7197 89.3277 62.584C90.8551 64.6387 90.8628 66.5652 89.3547 68.6549C88.8095 69.4084 88.1174 70.1075 87.2357 70.795C84.5251 72.9041 81.2963 74.4965 76.7682 75.9492C68.5938 78.5748 59.4758 79.876 48.0726 80.043C45.6094 80.078 45.3117 81.3092 45.3039 82.2336C45.2962 82.9289 45.4779 83.461 45.8376 83.8183C46.2938 84.2728 47.0595 84.4981 48.1228 84.4631L49.5381 84.432C52.2101 84.3777 54.9749 84.3194 57.6855 84.0863H57.6816ZM74.1311 60.4051C70.1212 60.4051 66.1113 60.4089 62.1014 60.4089C59.6498 60.4089 57.2021 60.4089 54.7506 60.4089H47.3998H40.83C34.2603 60.4089 27.6906 60.4089 21.1209 60.4089C17.9307 60.4089 16.6276 59.1194 16.6276 55.9617C16.6276 44.2977 16.6276 32.6338 16.6276 20.9699C16.6276 17.816 17.9307 16.5265 21.1209 16.5226C22.6173 16.5226 24.1099 16.5226 25.6025 16.5226C28.2629 16.5226 30.9232 16.5226 33.5836 16.5187C35.2463 16.5149 35.7838 16.0954 36.2014 14.4796C36.4837 13.3921 36.7544 12.3045 37.0251 11.2131C37.3267 9.99348 37.6438 8.73115 37.9686 7.49213C38.5177 5.41025 39.7203 4.47419 41.8663 4.46254C45.7177 4.43923 49.511 4.43923 53.1381 4.46254C55.2687 4.47419 56.4674 5.41802 57.0165 7.51543C57.3297 8.70785 57.6236 9.90414 57.9214 11.1004C58.192 12.188 58.4589 13.2755 58.7411 14.3592C59.2013 16.1342 59.704 16.5187 61.5716 16.5226C63.5244 16.5226 65.4771 16.5226 67.426 16.5226C69.6804 16.5226 71.9309 16.5226 74.1852 16.5226C76.9848 16.5304 78.3459 17.8937 78.3498 20.6903C78.3575 32.5057 78.3575 44.321 78.3498 56.1364C78.3498 59.0456 77.008 60.4012 74.1349 60.4051H74.1311Z" fill="url(#paint0_linear_774_16)"/>
<path d="M65.825 43.4708C66.3586 41.5793 66.2851 39.6683 66.2117 37.6486C66.1923 37.1475 66.173 36.6465 66.1653 36.1454C66.0879 31.8419 63.965 28.622 59.8585 26.5828C57.9405 25.6312 55.9143 25.6623 53.7721 25.7011C53.2849 25.7089 52.7938 25.7167 52.3066 25.7128C51.4327 25.7011 50.814 25.8953 50.4157 26.2876C50.0058 26.6916 49.8086 27.3402 49.8047 28.2685C49.797 30.6223 49.797 32.976 49.8009 35.3298V38.3749V41.4278C49.8009 43.7777 49.8009 46.1314 49.8009 48.4813C49.8047 50.4894 50.4969 51.2041 52.4381 51.2196C53.5478 51.2274 54.7272 51.2351 55.8795 51.2157C60.4733 51.1341 64.5605 47.9492 65.8211 43.4708H65.825ZM54.5996 46.5004C54.1665 46.1081 54.1395 45.4867 54.1549 45.0555C54.2129 43.5058 54.2013 41.9211 54.1897 40.3908C54.1859 39.746 54.1781 39.0974 54.1781 38.4526C54.1781 37.8078 54.1859 37.1709 54.1897 36.53C54.2052 35.0424 54.2207 33.5043 54.151 32.005C54.1278 31.5312 54.1511 30.8514 54.6228 30.4358C55.083 30.028 55.7132 30.0707 56.3281 30.1795C59.5685 30.7427 61.6681 33.1392 61.8035 36.4251C61.8615 37.8273 61.8615 39.2139 61.8035 40.5422C61.6527 43.8787 59.4254 46.3334 56.1309 46.7917C55.9569 46.815 55.779 46.8345 55.5972 46.8345C55.2376 46.8345 54.878 46.7607 54.5957 46.5043L54.5996 46.5004Z" fill="url(#paint1_linear_774_16)"/>
<path d="M30.9191 51.2155C31.4102 51.2349 31.9168 51.231 32.4078 51.2272C32.6553 51.2272 32.8989 51.2233 33.1464 51.2233C33.2663 51.2233 33.3823 51.2233 33.5022 51.2233C33.5988 51.2233 33.6994 51.2233 33.796 51.2233C33.9352 51.2233 34.0744 51.2233 34.2175 51.231C37.3999 51.3553 39.7625 50.0503 41.2435 47.3508C42.7052 44.6864 42.5621 42.0296 40.8104 39.4506C40.184 38.5301 40.5668 37.9164 40.8762 37.427C42.2528 35.2325 42.5544 32.7234 41.7269 30.5172C40.911 28.346 39.0742 26.6914 36.6846 25.9845C34.8285 25.4329 32.8177 25.6038 30.8766 25.767L30.196 25.8252C29.2487 25.899 28.6957 27.0953 28.7769 28.1634C28.8542 29.1888 29.6469 30.0123 30.6214 30.0822C31.3135 30.1327 32.0328 30.1249 32.7249 30.1171C33.0111 30.1171 33.2972 30.1133 33.5795 30.1133C37.3458 30.1249 37.7595 32.265 37.7634 33.1856C37.7711 35.0305 36.4332 36.0753 33.7922 36.2851C32.5896 36.3822 31.7776 37.26 31.7776 38.4757C31.7776 39.4894 32.0869 40.542 34.3761 40.678C36.3752 40.7945 37.7673 42.0646 37.7673 43.7619C37.7673 45.4826 36.3288 46.776 34.3567 46.8343C33.7844 46.8537 33.2044 46.8459 32.6476 46.842C32.0753 46.8381 31.4837 46.8343 30.9075 46.8537C29.6121 46.8964 28.773 47.7548 28.7769 49.0443C28.7769 50.3377 29.5967 51.1767 30.9191 51.231V51.2155Z" fill="url(#paint2_linear_774_16)"/>
</g>
<defs>
<linearGradient id="paint0_linear_774_16" x1="11.5484" y1="0.000984726" x2="98.6436" y2="28.6364" gradientUnits="userSpaceOnUse">
<stop stop-color="#EC6608"/>
<stop offset="1" stop-color="#FF9B06"/>
</linearGradient>
<linearGradient id="paint1_linear_774_16" x1="51.7993" y1="25.6865" x2="67.8913" y2="28.8817" gradientUnits="userSpaceOnUse">
<stop stop-color="#EC6608"/>
<stop offset="1" stop-color="#FF9B06"/>
</linearGradient>
<linearGradient id="paint2_linear_774_16" x1="30.4064" y1="25.6074" x2="43.7438" y2="27.7668" gradientUnits="userSpaceOnUse">
<stop stop-color="#EC6608"/>
<stop offset="1" stop-color="#FF9B06"/>
</linearGradient>
<clipPath id="clip0_774_16">
<rect width="95" height="89" fill="white"/>
</clipPath>
</defs>
</svg>
