<svg width="59" height="60" viewBox="0 0 59 60" fill="none" xmlns="http://www.w3.org/2000/svg">
<g clip-path="url(#clip0_591_286)">
<path d="M33.4944 22.7151C33.325 22.0777 32.7921 21.6411 32.573 21.0438C32.2542 20.1906 31.6515 20.0802 30.8497 20.1254C29.729 20.1856 28.6034 20.1555 27.4828 20.1354C27.1441 20.1304 26.9748 20.2509 26.8005 20.5369C26.2875 21.4002 25.899 22.3437 25.2017 23.0915C24.34 24.02 22.5719 24.0903 21.6754 22.9209C21.3368 22.4792 21.0678 21.9773 20.7341 21.4403C20.0567 22.5495 19.5238 23.7741 17.9749 23.7841C16.406 23.7992 15.8133 22.6248 15.1658 21.4002C14.9118 21.8318 14.7076 22.1931 14.4835 22.5445C13.4077 24.2458 11.2311 24.2057 10.2002 22.4692C9.81168 21.8167 9.4232 21.1643 9.06958 20.4918C8.92016 20.2057 8.7309 20.1254 8.42708 20.1254C6.93789 20.1404 5.44371 20.1003 3.95452 20.1455C3.14268 20.1706 2.6496 19.8092 2.29598 19.1216C1.74812 18.0526 1.2401 16.9685 0.752 15.8744C0.512932 15.3374 0.104524 14.8908 0.0198544 14.2734C-0.0199903 13.9824 0.00989324 13.7414 0.139388 13.4955C0.956204 11.9297 1.77302 10.3638 2.58984 8.79791C2.804 8.39139 3.03311 8.11033 3.57599 8.28599C3.8549 8.37633 4.1886 8.27595 4.4974 8.27595C13.4625 8.27595 22.4325 8.27094 31.3975 8.28599C31.9155 8.28599 32.1745 8.12539 32.4186 7.65864C34.5303 3.6737 37.8026 1.21447 42.1755 0.245842C42.5989 0.150484 43.0521 0.180597 43.4555 -0.0151367H46.3592C46.9419 0.235804 47.5844 0.250861 48.1921 0.406444C49.238 0.672442 50.2241 1.04885 51.2003 1.51058C52.824 2.27345 54.1887 3.36253 55.379 4.68248C57.1272 6.61974 58.1532 8.89327 58.7111 11.4579C59.1444 13.4453 59.0448 15.3876 58.6463 17.3299C58.4421 18.3186 58.0935 19.2722 57.6054 20.1957C57.0874 21.1693 56.6292 22.163 55.9269 23.0263C54.1488 25.2145 51.9574 26.7854 49.2928 27.6988C48.974 27.8092 48.6553 27.754 48.3415 27.7891C48.2718 27.749 48.1921 27.6887 48.2269 27.6135C48.6652 26.7653 48.7698 25.8017 49.1683 24.9435C50.9314 24.3663 52.3409 23.227 53.5362 21.882C55.2346 19.9748 56.1909 17.5608 56.4001 15.1166C56.5345 13.5357 56.3054 12.03 55.8323 10.5445C54.7615 7.19189 52.5551 4.85312 49.3675 3.488C47.6591 2.75525 45.8612 2.43907 43.9735 2.65488C42.8081 2.79038 41.6725 2.92589 40.5817 3.41272C37.5934 4.7427 35.4218 6.86567 34.1817 9.93217C33.9277 10.5595 33.4346 10.8506 32.7772 10.8506C23.6926 10.8506 14.608 10.8506 5.5234 10.8506C5.25445 10.8506 4.98052 10.8807 4.71156 10.8707C4.46254 10.8606 4.32806 10.966 4.21849 11.1869C3.77023 12.0702 3.30206 12.9485 2.84385 13.8268C2.72431 14.0526 2.74921 14.2634 2.86377 14.4943C3.30704 15.3776 3.74533 16.2609 4.15872 17.1593C4.30316 17.4805 4.49242 17.5608 4.82612 17.5608C6.33523 17.5457 7.84933 17.5507 9.35845 17.5608C9.99597 17.5608 10.489 17.8067 10.8128 18.3989C11.2959 19.2872 11.8139 20.1505 12.3269 21.0438C12.3916 20.9736 12.4365 20.9384 12.4663 20.8882C12.9495 20.0652 13.4824 19.2672 13.9007 18.414C14.5034 17.1894 15.9179 17.4102 16.401 18.414C16.8393 19.3224 17.3971 20.1655 17.935 21.089C18.0595 20.8882 18.1492 20.7377 18.2388 20.5921C18.7867 19.7189 19.22 18.7753 19.8376 17.9472C20.1663 17.5056 20.5897 17.4755 21.0678 17.6511C21.4812 17.8067 21.785 18.0526 22.0042 18.4591C22.4773 19.3274 22.9953 20.1706 23.5282 21.084C24.0761 20.1304 24.5891 19.2371 25.0971 18.3437C25.4009 17.8117 25.8442 17.5457 26.4618 17.5457C28.5536 17.5558 30.6455 17.5558 32.7373 17.5457C33.4595 17.5457 33.9526 17.897 34.2165 18.5394C35.1031 20.7026 36.4678 22.4742 38.4152 23.759C40.248 24.9635 42.2054 25.8368 44.4666 25.7866C44.9397 25.7766 45.4328 25.6511 45.896 25.887C45.9359 25.9723 46.0305 26.0827 46.0056 26.1329C45.637 26.8857 45.5324 27.744 45.0842 28.4667C44.2026 28.4667 43.326 28.3362 42.4594 28.2007C41.015 27.9748 39.6653 27.4428 38.3704 26.7803C37.2647 26.2132 36.3283 25.3951 35.3173 24.6875C34.9039 24.1706 34.3809 23.749 33.9974 23.1969C33.8629 23.0062 33.8032 22.7201 33.4944 22.7051V22.7151Z" fill="url(#paint0_linear_591_286)"/>
<path d="M33.4945 22.7151C33.8033 22.7352 33.8681 23.0163 33.9976 23.207C34.3761 23.7591 34.8991 24.1806 35.3174 24.6976C35.2826 24.7176 35.2427 24.7277 35.2228 24.7578C34.2665 25.9573 33.5792 27.3325 32.7923 28.6424C32.7126 28.7729 32.7674 28.8983 32.8869 28.9987C33.4099 29.4404 33.9328 29.8921 34.4558 30.3337C35.5963 31.2923 36.7369 32.2459 37.8725 33.2095C38.8188 34.0075 39.7651 34.8105 40.7064 35.6085C41.8818 34.1882 42.8979 32.7076 43.7745 31.1317C44.2526 30.2735 44.8054 29.4454 45.0843 28.4818C45.5326 27.7641 45.6372 26.9008 46.0058 26.148C46.0307 26.0978 45.936 25.9874 45.8962 25.9021C46.0904 25.887 46.19 25.8017 46.2448 25.5959C46.4839 24.6675 46.7877 23.7591 46.9969 22.8256C47.3007 21.4805 47.7141 20.1505 47.6145 18.7453C47.6742 18.2484 47.5946 17.7565 47.3356 17.3601C47.0069 16.8582 46.9869 16.3663 47.1712 15.8343C47.4601 15.8745 47.3306 15.5483 47.5348 15.4429C48.3167 15.0363 48.9792 15.207 49.6017 16.0702C49.9454 16.8783 50.1795 17.7164 50.2044 18.5997C50.3189 19.3676 50.0799 20.1254 50.0151 20.8783C49.8956 22.2534 49.4673 23.6035 49.1634 24.9636C48.77 25.8218 48.6604 26.7854 48.2221 27.6336C48.1823 27.7089 48.262 27.7691 48.3367 27.8092C48.2371 27.9498 48.0876 28.0752 48.0428 28.2258C47.6643 29.4655 46.9371 30.5395 46.4042 31.7038C45.8364 32.9385 45.0594 34.0677 44.2775 35.1819C43.8392 35.8042 43.386 36.4215 42.9078 37.0138C42.7186 37.2446 42.7485 37.355 42.9477 37.5257C43.8541 38.2936 44.7556 39.0665 45.6521 39.8444C46.1801 40.3011 46.7927 40.6675 47.1015 41.345C47.5398 42.2986 47.5995 43.207 46.8724 44.0602C46.2847 44.7528 45.7617 45.5156 45.1142 46.148C44.3771 46.8707 43.4009 47.2572 41.837 46.2634C41.827 46.4943 41.8121 46.6951 41.8121 46.8958C41.8121 50.3287 41.8171 53.7666 41.8071 57.1995C41.8071 58.1982 41.4933 59.0665 40.5968 59.6336C40.2133 59.8745 39.8149 59.9849 39.3666 59.9849C32.9367 59.9849 26.5068 59.9498 20.0768 60.005C18.483 60.02 17.4023 58.7703 17.4172 57.2898C17.4521 53.8368 17.4272 50.3789 17.4272 46.9259C17.4272 46.7151 17.4272 46.5044 17.4272 46.2283C17.1532 46.3588 16.9341 46.4542 16.7199 46.5646C15.41 47.2421 14.3641 46.6047 13.5672 45.6612C13.1588 45.1794 12.8052 44.6524 12.3669 44.2007C11.4853 43.2973 11.5501 41.8469 12.332 40.9284C12.9596 40.1907 13.7664 39.6537 14.4836 39.0163C15.3552 38.2384 16.2667 37.5056 17.1582 36.7578C18.3286 35.7741 19.4991 34.7904 20.6645 33.7967C21.7304 32.8933 22.7863 31.9799 23.8422 31.0665C25.1869 29.9071 26.5167 28.7227 27.8864 27.5934C28.5886 27.0163 29.4353 26.7754 30.3269 27.0916C30.6755 27.217 30.7701 27.0665 30.8847 26.8356C31.6218 25.3852 32.4635 23.9949 33.4846 22.7252L33.4945 22.7151ZM30.0878 44.7678C29.1166 44.1756 28.9074 43.754 29.1515 42.8858C29.4204 42.4491 29.7392 42.1932 30.3119 42.138C31.064 42.0727 31.846 42.0025 32.5333 41.601C33.4348 41.3651 34.2516 40.9535 35.0883 40.4366C34.9339 40.2961 34.8094 40.1706 34.6799 40.0602C33.9826 39.468 33.2704 38.8908 32.5681 38.3036C31.7065 37.5859 30.8996 36.798 29.9932 36.1304C29.6047 35.8444 29.3706 35.9448 29.0518 36.2258C28.24 36.9586 27.4083 37.6662 26.5715 38.3739C25.4359 39.3375 24.2904 40.2961 23.1499 41.2547C22.2733 41.9924 21.4017 42.7302 20.5151 43.4579C20.1964 43.7189 20.037 43.9949 20.037 44.4366C20.0569 48.3412 20.0469 52.2459 20.0469 56.1455C20.0469 56.552 20.0469 56.9535 20.0469 57.3751C21.8898 57.3751 23.7674 57.3751 25.6451 57.3751C26.5018 57.3751 27.3535 57.3751 28.2101 57.3751C29.1714 57.3751 30.1376 57.3751 31.0989 57.3751C31.9555 57.3751 32.8072 57.3751 33.6639 57.3751C35.3871 57.3801 37.1104 57.3801 38.8337 57.3952C39.1126 57.3952 39.2471 57.3601 39.2471 57.0238C39.2371 53.1192 39.262 49.2145 39.2122 45.3099C39.2073 44.8281 39.3617 44.2358 38.9781 43.8193C38.5648 43.3676 38.0816 42.9761 37.6234 42.5646C37.2897 42.2685 36.976 42.2133 36.5875 42.5495C36.2936 42.8055 35.9151 42.9661 35.5615 43.1367C34.7496 43.5332 33.9278 43.9046 33.111 44.291C32.9367 44.2509 32.7773 44.291 32.603 44.3362C31.7762 44.5721 30.9245 44.6624 30.0778 44.7628L30.0878 44.7678ZM38.9234 37.5458C38.8337 37.4454 38.749 37.335 38.6494 37.2496C37.8974 36.6223 37.1602 35.9749 36.3833 35.3776C35.3075 34.5545 34.3113 33.6411 33.2704 32.7829C32.2095 31.9146 31.1835 30.9962 30.1426 30.0978C29.774 29.7816 29.4005 29.7666 29.022 30.0828C27.6025 31.2772 26.1731 32.4567 24.7636 33.6612C23.1449 35.0414 21.5511 36.4466 19.9324 37.8218C18.3037 39.212 16.6651 40.5972 15.0066 41.9523C14.5285 42.3437 14.2794 42.6148 14.8871 43.1166C15.1062 43.2973 15.3303 43.5483 15.4847 43.8092C15.6441 44.0853 15.7587 44.1154 16.0027 43.9046C16.8992 43.1317 17.8206 42.3889 18.7221 41.621C19.5838 40.8883 20.4205 40.1304 21.2871 39.3977C22.6418 38.2534 24.0215 37.1342 25.3762 35.9849C26.4868 35.0464 27.5676 34.0677 28.6733 33.1292C29.2461 32.6424 29.9633 32.6875 30.5311 33.1744C31.0989 33.6612 31.6965 34.1129 32.2593 34.6047C32.7574 35.0414 33.3152 35.4077 33.7834 35.8594C34.8542 36.9084 36.0745 37.7716 37.1602 38.8005C37.2598 38.8958 37.3296 38.9109 37.4491 38.8055C37.8675 38.4441 38.2958 38.0978 38.7241 37.7465C38.7988 37.6863 38.8636 37.611 38.9283 37.5407L38.9234 37.5458ZM40.9106 39.212C40.8359 39.2722 40.7911 39.3023 40.7463 39.3425C40.3179 39.7289 39.9693 40.1957 39.4762 40.5169C39.262 40.6574 39.4662 40.7829 39.5758 40.8732C40.6715 41.7917 41.7822 42.7001 42.873 43.6235C43.5354 44.1857 43.5354 44.1907 44.0434 43.4379C44.0882 43.3726 44.1331 43.3124 44.1829 43.2572C44.3622 43.0313 44.6411 42.8306 44.6959 42.5796C44.7805 42.2082 44.3173 42.1731 44.1181 41.9724C43.1718 41.0539 42.1607 40.2007 41.1148 39.3927C41.0451 39.3375 40.9803 39.2722 40.9106 39.212Z" fill="url(#paint1_linear_591_286)"/>
<path d="M47.6245 18.7451C47.49 18.8505 47.3705 18.8304 47.2061 18.7652C46.464 18.454 45.8514 18.0174 45.2537 17.4452C44.2576 16.4917 43.7645 15.3875 43.8193 14.0626C43.9438 11.0964 46.6732 9.0337 49.2531 9.58075C51.7633 10.1127 53.3621 11.9145 53.2077 14.3787C53.128 15.6987 52.7395 16.9634 51.5143 17.7765C51.086 18.0575 50.7722 18.5193 50.2194 18.5996C50.1944 17.7112 49.9604 16.8781 49.6167 16.0701C50.1944 15.6385 50.6128 15.0914 50.6676 14.3486C50.7423 13.3499 50.1247 12.4314 49.2631 12.1855C48.1175 11.8643 47.1663 12.2357 46.6532 13.2043C46.1303 14.1981 46.3096 15.0814 47.1812 15.8292C46.9969 16.3662 47.0168 16.853 47.3456 17.3549C47.6095 17.7564 47.6892 18.2483 47.6245 18.7401V18.7451Z" fill="url(#paint2_linear_591_286)"/>
<path d="M25.6501 57.38C25.6501 55.9948 25.6999 54.6046 25.6402 53.2244C25.5854 51.9898 26.8405 50.8957 27.8665 50.9408C29.007 50.991 30.1526 50.9157 31.2931 50.9458C32.8271 50.986 33.5693 51.9195 33.6539 53.3448C33.7286 54.6899 33.6738 56.0399 33.6738 57.385C32.8172 57.385 31.9655 57.385 31.1088 57.385C31.1088 56.2758 31.0989 55.1717 31.1188 54.0625C31.1238 53.6811 31.0441 53.4904 30.6108 53.5155C29.9782 53.5506 29.3358 53.5406 28.7032 53.5155C28.3297 53.5004 28.1952 53.6209 28.2052 54.0073C28.2251 55.1315 28.2151 56.2608 28.2151 57.39C27.3585 57.39 26.5068 57.39 25.6501 57.39V57.38Z" fill="url(#paint3_linear_591_286)"/>
<path d="M33.121 44.296C33.0961 45.7263 31.7015 47.1466 30.302 47.3474C29.2062 47.503 28.255 47.3625 27.3734 46.6699C25.9738 45.5657 25.6252 43.5331 26.5117 41.9522C27.6672 39.8894 30.8299 39.6084 32.2344 41.3349C32.3191 41.4403 32.4337 41.5155 32.5383 41.6009C31.8509 42.0024 31.069 42.0726 30.3169 42.1379C29.7441 42.1881 29.4254 42.449 29.1564 42.8857C28.5339 43.3474 28.3944 43.8643 28.748 44.4014C29.0817 44.9083 29.6097 45.0538 30.0928 44.7677C30.9395 44.6673 31.7912 44.577 32.6179 44.3411C32.7923 44.2909 32.9516 44.2558 33.126 44.296H33.121Z" fill="url(#paint4_linear_591_286)"/>
</g>
<defs>
<linearGradient id="paint0_linear_591_286" x1="7.1728" y1="-0.0151341" x2="49.7664" y2="27.1576" gradientUnits="userSpaceOnUse">
<stop stop-color="#EC6608"/>
<stop offset="1" stop-color="#FF9B06"/>
</linearGradient>
<linearGradient id="paint1_linear_591_286" x1="16.4058" y1="15.2329" x2="52.962" y2="24.9178" gradientUnits="userSpaceOnUse">
<stop stop-color="#EC6608"/>
<stop offset="1" stop-color="#FF9B06"/>
</linearGradient>
<linearGradient id="paint2_linear_591_286" x1="44.958" y1="9.49268" x2="53.6702" y2="12.1982" gradientUnits="userSpaceOnUse">
<stop stop-color="#EC6608"/>
<stop offset="1" stop-color="#FF9B06"/>
</linearGradient>
<linearGradient id="paint3_linear_591_286" x1="26.6174" y1="50.9385" x2="33.746" y2="53.6799" gradientUnits="userSpaceOnUse">
<stop stop-color="#EC6608"/>
<stop offset="1" stop-color="#FF9B06"/>
</linearGradient>
<linearGradient id="paint4_linear_591_286" x1="26.8886" y1="40.2026" x2="33.4928" y2="42.2081" gradientUnits="userSpaceOnUse">
<stop stop-color="#EC6608"/>
<stop offset="1" stop-color="#FF9B06"/>
</linearGradient>
<clipPath id="clip0_591_286">
<rect width="59" height="60" fill="white"/>
</clipPath>
</defs>
</svg>
