<svg width="35" height="37" viewBox="0 0 35 37" fill="none" xmlns="http://www.w3.org/2000/svg">
<path d="M33.873 14.1483L19.8818 0.941036L19.8537 0.914786C19.2108 0.326353 18.3707 0 17.4991 0C16.6275 0 15.7875 0.326353 15.1445 0.914786L15.1147 0.941036L1.127 14.1483C0.772276 14.4765 0.489096 14.8743 0.295176 15.317C0.101255 15.7596 0.000767956 16.2375 0 16.7208V32.8995C0 33.8278 0.368749 34.718 1.02513 35.3744C1.6815 36.0308 2.57174 36.3995 3.5 36.3995H11.9C12.8283 36.3995 13.7185 36.0308 14.3749 35.3744C15.0313 34.718 15.4 33.8278 15.4 32.8995V25.1995H19.6V32.8995C19.6 33.8278 19.9687 34.718 20.6251 35.3744C21.2815 36.0308 22.1717 36.3995 23.1 36.3995H31.5C32.4283 36.3995 33.3185 36.0308 33.9749 35.3744C34.6313 34.718 35 33.8278 35 32.8995V16.7208C34.9992 16.2375 34.8987 15.7596 34.7048 15.317C34.5109 14.8743 34.2277 14.4765 33.873 14.1483ZM30.8 32.1995H23.8V24.4995C23.8 24.0399 23.7095 23.5848 23.5336 23.1601C23.3577 22.7355 23.0999 22.3497 22.7749 22.0247C22.4499 21.6997 22.064 21.4419 21.6394 21.266C21.2148 21.0901 20.7596 20.9995 20.3 20.9995H14.7C13.7717 20.9995 12.8815 21.3683 12.2251 22.0247C11.5687 22.681 11.2 23.5713 11.2 24.4995V32.1995H4.2V17.0235L17.5 4.46729L30.8 17.0235V32.1995Z" fill="url(#paint0_linear_73_569)"/>
<defs>
<linearGradient id="paint0_linear_73_569" x1="4.25373" y1="3.33876e-06" x2="36.943" y2="9.68177" gradientUnits="userSpaceOnUse">
<stop stop-color="#EC6608"/>
<stop offset="1" stop-color="#FF9B06"/>
</linearGradient>
</defs>
</svg>
