<svg width="35" height="44" viewBox="0 0 35 44" fill="none" xmlns="http://www.w3.org/2000/svg">
<path d="M17.5 21.9872C15.0938 21.9872 13.125 20.0083 13.125 17.5897C13.125 15.1712 15.0938 13.1923 17.5 13.1923C19.9062 13.1923 21.875 15.1712 21.875 17.5897C21.875 20.0083 19.9062 21.9872 17.5 21.9872ZM30.625 18.0295C30.625 10.0481 24.8281 4.39744 17.5 4.39744C10.1719 4.39744 4.375 10.0481 4.375 18.0295C4.375 23.1745 8.64062 29.9905 17.5 38.1258C26.3594 29.9905 30.625 23.1745 30.625 18.0295ZM17.5 0C26.6875 0 35 7.07987 35 18.0295C35 25.3292 29.1594 33.9702 17.5 43.9744C5.84063 33.9702 0 25.3292 0 18.0295C0 7.07987 8.3125 0 17.5 0Z" fill="url(#paint0_linear_73_567)"/>
<defs>
<linearGradient id="paint0_linear_73_567" x1="4.25373" y1="4.03356e-06" x2="37.7946" y2="8.22282" gradientUnits="userSpaceOnUse">
<stop stop-color="#EC6608"/>
<stop offset="1" stop-color="#FF9B06"/>
</linearGradient>
</defs>
</svg>
