<svg width="35" height="35" viewBox="0 0 35 35" fill="none" xmlns="http://www.w3.org/2000/svg">
<path d="M21.875 16.0416V16.0562M7.54391 12.2179C6.90429 11.7263 6.41304 11.0674 6.12446 10.314C5.83588 9.56071 5.76121 8.74225 5.90871 7.94914C6.0562 7.15602 6.42011 6.41912 6.96022 5.8199C7.50033 5.22067 8.1956 4.78244 8.96919 4.55366C9.74279 4.32487 10.5646 4.31442 11.3437 4.52348C12.1229 4.73254 12.8291 5.15296 13.3842 5.73827C13.9394 6.32358 14.3219 7.05099 14.4895 7.8401C14.6571 8.62922 14.6033 9.44931 14.3339 10.2097" stroke="white" stroke-width="2" stroke-linecap="round" stroke-linejoin="round"/>
<path d="M23.3333 5.83325V11.3793C25.1381 12.4236 26.5122 14.0764 27.2095 16.0416H29.1652C29.5519 16.0416 29.9229 16.1952 30.1963 16.4687C30.4698 16.7422 30.6235 17.1131 30.6235 17.4999V20.4166C30.6235 20.8034 30.4698 21.1743 30.1963 21.4478C29.9229 21.7213 29.5519 21.8749 29.1652 21.8749H27.2081C26.7181 23.2603 25.8854 24.4999 24.7901 25.4814V28.4374C24.7901 29.0176 24.5597 29.574 24.1494 29.9842C23.7392 30.3945 23.1828 30.6249 22.6026 30.6249C22.0225 30.6249 21.4661 30.3945 21.0559 29.9842C20.6456 29.574 20.4151 29.0176 20.4151 28.4374V27.5872C19.9332 27.6679 19.4454 27.7084 18.9568 27.7083H13.1235C12.6349 27.7084 12.1471 27.6679 11.6651 27.5872V28.4374C11.6651 29.0176 11.4347 29.574 11.0244 29.9842C10.6142 30.3945 10.0578 30.6249 9.47765 30.6249C8.89749 30.6249 8.34109 30.3945 7.93085 29.9842C7.52062 29.574 7.29015 29.0176 7.29015 28.4374V25.4814C5.96884 24.3001 5.03743 22.7454 4.61919 21.0231C4.20094 19.3007 4.3156 17.492 4.94798 15.8363C5.58036 14.1806 6.70064 12.7559 8.16053 11.7509C9.62043 10.7459 11.3511 10.208 13.1235 10.2083H16.7693L23.3318 5.83325H23.3333Z" stroke="white" stroke-width="2" stroke-linecap="round" stroke-linejoin="round"/>
</svg>
