<svg width="24" height="24" viewBox="0 0 24 24" fill="none" xmlns="http://www.w3.org/2000/svg">
<path fill-rule="evenodd" clip-rule="evenodd" d="M17.67 8.7615C17.4591 8.97218 17.1731 9.09051 16.875 9.09051C16.5769 9.09051 16.2909 8.97218 16.08 8.7615L13.125 5.8065V16.875C13.125 17.1734 13.0065 17.4595 12.7955 17.6705C12.5845 17.8815 12.2984 18 12 18C11.7016 18 11.4155 17.8815 11.2045 17.6705C10.9935 17.4595 10.875 17.1734 10.875 16.875V5.8065L7.92 8.7615C7.70674 8.96022 7.42467 9.0684 7.13322 9.06326C6.84176 9.05812 6.56369 8.94005 6.35757 8.73393C6.15145 8.52781 6.03338 8.24974 6.02824 7.95828C6.0231 7.66683 6.13128 7.38476 6.33 7.1715L11.205 2.2965L12 1.5L12.795 2.295L17.67 7.17C17.7745 7.27448 17.8575 7.39853 17.9141 7.53506C17.9706 7.6716 17.9998 7.81795 17.9998 7.96575C17.9998 8.11355 17.9706 8.2599 17.9141 8.39644C17.8575 8.53297 17.7745 8.65702 17.67 8.7615ZM3.75 14.625C3.75 14.3266 3.63147 14.0405 3.4205 13.8295C3.20952 13.6185 2.92337 13.5 2.625 13.5C2.32663 13.5 2.04048 13.6185 1.8295 13.8295C1.61853 14.0405 1.5 14.3266 1.5 14.625V19.5C1.5 20.2956 1.81607 21.0587 2.37868 21.6213C2.94129 22.1839 3.70435 22.5 4.5 22.5H19.5C20.2956 22.5 21.0587 22.1839 21.6213 21.6213C22.1839 21.0587 22.5 20.2956 22.5 19.5V14.625C22.5 14.3266 22.3815 14.0405 22.1705 13.8295C21.9595 13.6185 21.6734 13.5 21.375 13.5C21.0766 13.5 20.7905 13.6185 20.5795 13.8295C20.3685 14.0405 20.25 14.3266 20.25 14.625V19.5C20.25 19.6989 20.171 19.8897 20.0303 20.0303C19.8897 20.171 19.6989 20.25 19.5 20.25H4.5C4.30109 20.25 4.11032 20.171 3.96967 20.0303C3.82902 19.8897 3.75 19.6989 3.75 19.5V14.625Z" fill="white"/>
</svg>
