<svg width="32" height="32" viewBox="0 0 32 32" fill="none" xmlns="http://www.w3.org/2000/svg">
<path d="M29.707 19.293L26.707 16.293C26.5195 16.1055 26.2652 16.0002 26 16.0002C25.7348 16.0002 25.4805 16.1055 25.293 16.293L16 25.586V30H20.414L29.707 20.707C29.8945 20.5195 29.9998 20.2652 29.9998 20C29.9998 19.7348 29.8945 19.4805 29.707 19.293ZM19.586 28H18V26.414L23 21.414L24.586 23L19.586 28ZM26 21.586L24.414 20L26 18.414L27.586 20L26 21.586ZM8 16H18V18H8V16ZM8 10H20V12H8V10Z" fill="white"/>
<path d="M26 4C25.9995 3.46973 25.7886 2.96133 25.4136 2.58637C25.0387 2.21141 24.5303 2.00053 24 2H4.00001C3.46974 2.00053 2.96134 2.21141 2.58638 2.58637C2.21142 2.96133 2.00054 3.46973 2.00001 4V17C1.99778 18.9943 2.53873 20.9517 3.56478 22.6618C4.59084 24.372 6.06327 25.7704 7.82401 26.707L13 29.467V27.2L8.76601 24.942C7.32536 24.1757 6.12056 23.0315 5.28091 21.6324C4.44127 20.2332 3.99846 18.6318 4.00001 17V4H24V13H26V4Z" fill="white"/>
</svg>
