<svg width="28" height="23" viewBox="0 0 28 23" fill="none" xmlns="http://www.w3.org/2000/svg">
<path d="M2.63802 15.5122C1.54601 14.0939 1 13.3834 1 11.2778C1 9.17083 1.54601 8.46295 2.63802 7.04333C4.81819 4.21181 8.47451 1 13.8472 1C19.2199 1 22.8763 4.21181 25.0564 7.04333C26.1484 8.46424 26.6944 9.17212 26.6944 11.2778C26.6944 13.3847 26.1484 14.0926 25.0564 15.5122C22.8763 18.3437 19.2199 21.5556 13.8472 21.5556C8.47451 21.5556 4.81819 18.3437 2.63802 15.5122Z" stroke="white" stroke-width="2"/>
<path d="M17.7015 11.2778C17.7015 12.2999 17.2954 13.2803 16.5726 14.0031C15.8498 14.7259 14.8695 15.1319 13.8473 15.1319C12.8251 15.1319 11.8448 14.7259 11.122 14.0031C10.3992 13.2803 9.99316 12.2999 9.99316 11.2778C9.99316 10.2556 10.3992 9.27524 11.122 8.55244C11.8448 7.82965 12.8251 7.42358 13.8473 7.42358C14.8695 7.42358 15.8498 7.82965 16.5726 8.55244C17.2954 9.27524 17.7015 10.2556 17.7015 11.2778Z" stroke="white" stroke-width="2"/>
</svg>
