<svg width="31" height="31" viewBox="0 0 31 31" fill="none" xmlns="http://www.w3.org/2000/svg">
<path d="M9.04175 15.5H21.9584M9.04175 10.3334H16.7917" stroke="white" stroke-width="2" stroke-linecap="round" stroke-linejoin="round"/>
<path d="M3.875 26.2079V6.45833C3.875 5.77319 4.14717 5.11611 4.63164 4.63164C5.11611 4.14717 5.77319 3.875 6.45833 3.875H24.5417C25.2268 3.875 25.8839 4.14717 26.3684 4.63164C26.8528 5.11611 27.125 5.77319 27.125 6.45833V19.375C27.125 20.0601 26.8528 20.7172 26.3684 21.2017C25.8839 21.6862 25.2268 21.9583 24.5417 21.9583H10.283C9.89576 21.9584 9.51352 22.0455 9.16452 22.2132C8.81551 22.3808 8.50867 22.6248 8.26667 22.9271L5.25579 26.691C5.15559 26.8166 5.01885 26.9079 4.86447 26.9524C4.71009 26.9968 4.54571 26.9922 4.39407 26.9392C4.24243 26.8861 4.11102 26.7872 4.01803 26.6562C3.92504 26.5252 3.87506 26.3686 3.875 26.2079Z" stroke="white" stroke-width="2"/>
</svg>
