<svg width="32" height="32" viewBox="0 0 32 32" fill="none" xmlns="http://www.w3.org/2000/svg">
<path d="M25.7408 20.4004L23.3462 17.9734V14.7585C23.3434 12.5367 22.5279 10.3949 21.0573 8.74715C19.5868 7.09944 17.5656 6.06287 15.3846 5.8379V4H13.6154V5.8379C11.4344 6.06287 9.41325 7.09944 7.94267 8.74715C6.4721 10.3949 5.65659 12.5367 5.65385 14.7585V17.9734L3.25919 20.4004C3.09328 20.5685 3.00005 20.7965 3 21.0342V23.7238C3 23.9616 3.0932 24.1897 3.2591 24.3578C3.425 24.5259 3.65 24.6204 3.88462 24.6204H10.0769V25.317C10.0577 26.4544 10.4532 27.5589 11.1878 28.4191C11.9224 29.2792 12.9443 29.8343 14.0577 29.9781C14.6727 30.0399 15.2936 29.9706 15.8805 29.7746C16.4675 29.5786 17.0074 29.2602 17.4657 28.8401C17.924 28.4199 18.2904 27.9071 18.5414 27.3348C18.7924 26.7625 18.9224 26.1432 18.9231 25.5169V24.6204H25.1154C25.35 24.6204 25.575 24.5259 25.7409 24.3578C25.9068 24.1897 26 23.9616 26 23.7238V21.0342C25.9999 20.7965 25.9067 20.5685 25.7408 20.4004ZM17.1538 25.5169C17.1538 26.2302 16.8742 26.9144 16.3766 27.4188C15.8789 27.9232 15.2038 28.2065 14.5 28.2065C13.7962 28.2065 13.1211 27.9232 12.6234 27.4188C12.1258 26.9144 11.8462 26.2302 11.8462 25.5169V24.6204H17.1538V25.5169ZM24.2308 22.8273H4.76923V21.4054L7.16388 18.9785C7.32979 18.8104 7.42303 18.5824 7.42308 18.3446V14.7585C7.42308 12.8562 8.16868 11.0319 9.49586 9.68687C10.823 8.3418 12.6231 7.58615 14.5 7.58615C16.3769 7.58615 18.177 8.3418 19.5041 9.68687C20.8313 11.0319 21.5769 12.8562 21.5769 14.7585V18.3446C21.577 18.5824 21.6702 18.8104 21.8361 18.9785L24.2308 21.4054V22.8273Z" fill="white"/>
</svg>
