<svg width="29" height="28" viewBox="0 0 29 28" fill="none" xmlns="http://www.w3.org/2000/svg">
<path d="M1 4.79999H3.1C3.98889 4.79999 4.77111 5.38665 5.02 6.23999L8.38 17.76C8.62889 18.6133 9.41111 19.2 10.3 19.2H23.4582C24.3668 19.2 25.1612 18.5876 25.3924 17.709L28 7.79999" stroke="white" stroke-width="2" stroke-linecap="round"/>
<circle cx="11.8" cy="25.2" r="2.4" fill="white"/>
<circle cx="21.4" cy="25.2" r="2.4" fill="white"/>
<path d="M13.2973 8.88235C13.0439 8.3916 12.4407 8.19913 11.95 8.45247C11.4592 8.70581 11.2668 9.30901 11.5201 9.79977L13.2973 8.88235ZM11.5201 9.79977C12.5657 11.8252 14.6869 13.213 17.1265 13.213V11.213C15.4619 11.213 14.0121 10.267 13.2973 8.88235L11.5201 9.79977ZM17.1265 13.213C20.6111 13.213 23.4379 10.3863 23.4379 6.90167H21.4379C21.4379 9.28168 19.5065 11.213 17.1265 11.213V13.213ZM23.4379 6.90167C23.4379 3.41708 20.6111 0.590332 17.1265 0.590332V2.59033C19.5065 2.59033 21.4379 4.52165 21.4379 6.90167H23.4379ZM17.1265 0.590332C14.6869 0.590332 12.5657 1.9781 11.5201 4.00357L13.2973 4.92098C14.0121 3.53633 15.4619 2.59033 17.1265 2.59033V0.590332Z" fill="white"/>
<path d="M12.8684 0.00986542L15.8401 5.19111L9.86716 5.17402L12.8684 0.00986542Z" fill="white"/>
</svg>
