<svg width="18" height="18" viewBox="0 0 18 18" fill="none" xmlns="http://www.w3.org/2000/svg">
<path d="M8 5.00002V10L12.25 12.52L13.02 11.24L9.5 9.15002V5.00002H8ZM18 7.00002V1.86033e-05L15.36 2.64002C14.5272 1.80125 13.5362 1.13602 12.4445 0.682861C11.3528 0.229701 10.182 -0.00239307 9 1.86033e-05C7.21997 1.86033e-05 5.47991 0.52786 3.99987 1.51679C2.51983 2.50572 1.36628 3.91133 0.685088 5.55587C0.00389951 7.2004 -0.17433 9.01 0.172937 10.7558C0.520203 12.5017 1.37737 14.1053 2.63604 15.364C3.89472 16.6227 5.49836 17.4798 7.24419 17.8271C8.99002 18.1744 10.7996 17.9961 12.4442 17.3149C14.0887 16.6337 15.4943 15.4802 16.4832 14.0002C17.4722 12.5201 18 10.7801 18 9.00002H16C16 12.86 12.86 16 9 16C5.14 16 2 12.86 2 9.00002C2 5.14002 5.14 2.00002 9 2.00002C10.93 2.00002 12.68 2.79002 13.95 4.05002L11 7.00002H18Z" fill="#006FB9"/>
</svg>
