<svg width="35" height="35" viewBox="0 0 35 35" fill="none" xmlns="http://www.w3.org/2000/svg">
<path fill-rule="evenodd" clip-rule="evenodd" d="M26.95 12.1025C26.5984 12.4536 26.1219 12.6508 25.625 12.6508C25.1281 12.6508 24.6516 12.4536 24.3 12.1025L19.375 7.1775V25.625C19.375 26.1223 19.1775 26.5992 18.8258 26.9508C18.4742 27.3025 17.9973 27.5 17.5 27.5C17.0027 27.5 16.5258 27.3025 16.1742 26.9508C15.8225 26.5992 15.625 26.1223 15.625 25.625V7.1775L10.7 12.1025C10.3446 12.4337 9.87445 12.614 9.38869 12.6054C8.90294 12.5969 8.43948 12.4001 8.09595 12.0566C7.75241 11.713 7.55563 11.2496 7.54706 10.7638C7.53849 10.2781 7.7188 9.80794 8.05 9.4525L16.175 1.3275L17.5 0L18.825 1.325L26.95 9.45C27.1242 9.62413 27.2625 9.83088 27.3568 10.0584C27.4511 10.286 27.4996 10.5299 27.4996 10.7762C27.4996 11.0226 27.4511 11.2665 27.3568 11.4941C27.2625 11.7216 27.1242 11.9284 26.95 12.1025ZM3.75 21.875C3.75 21.3777 3.55246 20.9008 3.20083 20.5492C2.84919 20.1975 2.37228 20 1.875 20C1.37772 20 0.900806 20.1975 0.549175 20.5492C0.197544 20.9008 7.41006e-09 21.3777 0 21.875V30C0 31.3261 0.526784 32.5979 1.46447 33.5355C2.40215 34.4732 3.67392 35 5 35H30C31.3261 35 32.5979 34.4732 33.5355 33.5355C34.4732 32.5979 35 31.3261 35 30V21.875C35 21.3777 34.8025 20.9008 34.4508 20.5492C34.0992 20.1975 33.6223 20 33.125 20C32.6277 20 32.1508 20.1975 31.7992 20.5492C31.4475 20.9008 31.25 21.3777 31.25 21.875V30C31.25 30.3315 31.1183 30.6495 30.8839 30.8839C30.6495 31.1183 30.3315 31.25 30 31.25H5C4.66848 31.25 4.35054 31.1183 4.11612 30.8839C3.8817 30.6495 3.75 30.3315 3.75 30V21.875Z" fill="#9195A3"/>
</svg>
