<svg width="462" height="197" viewBox="0 0 462 197" fill="none" xmlns="http://www.w3.org/2000/svg">
<path d="M-103.991 161.746C-104.193 158.84 -104.313 155.934 -104.332 153C-105.04 64.9537 -5.21214 -8.25367 88.4758 1.73839C122.06 5.31144 153.531 18.8912 177.409 39.5488C198.958 58.1749 222.613 85.6025 254.448 92.7123C278.615 98.1259 301.116 86.9099 323.369 78.1703C385.502 53.7349 460.321 90.4275 461.208 152.618C461.522 175.514 449.569 199.461 428.515 213.446C376.988 247.656 338.077 183.185 288.882 204.044C270.071 212.019 259.093 231.63 246.224 245.39C230.656 262.036 211.909 276.261 191.342 287.459C151.16 309.364 103.654 319.974 58.5569 314.831C-26.5639 305.088 -98.3622 240.149 -103.991 161.746Z" fill="url(#paint0_linear_214_447)"/>
<defs>
<linearGradient id="paint0_linear_214_447" x1="14.6907" y1="343.926" x2="372.035" y2="0.961836" gradientUnits="userSpaceOnUse">
<stop stop-color="#EC6608"/>
<stop offset="1" stop-color="#FF9B06"/>
</linearGradient>
</defs>
</svg>
