<svg width="65" height="76" viewBox="0 0 65 76" fill="none" xmlns="http://www.w3.org/2000/svg">
<path d="M59.1064 39.4497H58.8721C57.5032 39.4497 56.3379 40.2303 55.8261 41.4865C54.5374 44.6637 52.6322 47.5117 50.1658 49.951L29.5778 70.3132C28.9581 70.923 28.619 71.7402 28.619 72.6092C28.619 73.4782 28.9612 74.2923 29.5778 74.9052L29.732 75.0577C30.3516 75.6705 31.1748 76.0059 32.0534 76.0059C32.9321 76.0059 33.7429 75.6736 34.3595 75.0698C34.3687 75.0607 34.378 75.0516 34.3903 75.0394L54.9629 54.6924C58.1075 51.5823 60.5276 47.9477 62.1585 43.8954C62.5716 42.8648 62.4544 41.7915 61.8255 40.8737C61.1966 39.9559 60.2316 39.4497 59.1094 39.4497H59.1064Z" fill="#006FB9"/>
<path d="M4.11263 27.1801H4.34077C5.80826 27.1801 7.07227 26.244 7.48847 24.8506C8.68774 20.8226 10.9198 17.1149 13.9411 14.1237C18.7782 9.33954 25.2093 6.70508 32.0504 6.70508C38.8914 6.70508 45.3256 9.33954 50.1596 14.1237C53.1809 17.1118 55.413 20.8226 56.6153 24.8506C57.0285 26.244 58.2956 27.1801 59.763 27.1801H59.9912C61.0517 27.1801 61.9828 26.7197 62.6179 25.8812C63.2406 25.0609 63.4318 24.07 63.1574 23.0851C63.1543 23.0638 63.1481 23.0455 63.142 23.0241C61.6282 17.8985 58.7981 13.1815 54.9567 9.38223C48.8401 3.33272 40.7042 0 32.0534 0C23.4027 0 15.2668 3.33272 9.1471 9.38223C5.30573 13.1815 2.47558 17.8985 0.961851 23.0241C0.665887 24.0303 0.850865 25.0426 1.48595 25.8812C2.12104 26.7197 3.05518 27.1801 4.11263 27.1801Z" fill="#006FB9"/>
<path d="M47.3665 46.71C47.3665 46.71 47.3942 46.6795 47.4097 46.6642C47.4621 46.6033 47.7056 46.3197 47.98 46.0026C48.4887 45.4141 48.8278 45.0238 48.8987 44.9323C51.772 41.2673 53.3536 36.6905 53.3536 32.0375C53.3536 26.4149 51.137 21.1246 47.1137 17.1424C46.1117 16.1514 45.0142 15.2611 43.855 14.4988C43.3032 14.1359 42.6773 13.9438 42.0392 13.9438C41.5027 13.9438 40.9786 14.075 40.4853 14.3372C39.4001 14.9104 38.7527 15.9807 38.7527 17.1973V17.4565C38.7527 18.5664 39.2645 19.5207 40.1925 20.1428C40.9509 20.652 41.6661 21.2374 42.3197 21.8838C45.0635 24.5976 46.5742 28.2047 46.5742 32.0375C46.5742 35.2177 45.4921 38.3431 43.5221 40.8465C43.0966 41.2856 35.3461 49.0426 31.255 53.1345L24.5557 59.7603C24.4632 59.8518 24.3399 59.9036 24.2043 59.9036C24.0686 59.9036 23.9484 59.8518 23.8559 59.7603L13.9411 49.9543C11.4747 47.515 9.56947 44.6671 8.2808 41.4898C7.76903 40.2336 6.60367 39.453 5.23484 39.453H5.00053C3.87834 39.453 2.91646 39.9592 2.28445 40.877C1.65861 41.7856 1.53838 42.8498 1.94224 43.8743C1.94224 43.8804 1.94841 43.8895 1.95149 43.8956C3.57929 47.9479 5.99941 51.5795 9.14711 54.6927L20.7883 66.2062C21.6978 67.1088 22.9125 67.6027 24.2073 67.6027C25.5022 67.6027 26.7138 67.1057 27.6263 66.2062L36.0521 57.8729L47.3665 46.713V46.71Z" fill="#006FB9"/>
<path d="M24.3985 19.8348C25.382 19.2311 25.9462 18.2249 25.9462 17.0784V16.8253C25.9462 15.6148 25.3358 14.5842 24.2691 13.9927C23.7696 13.7152 23.2116 13.5688 22.6628 13.5688C22.074 13.5688 21.4882 13.7335 20.9641 14.0476C20.958 14.0476 20.9549 14.0537 20.9518 14.0567C19.5182 14.9227 18.1895 15.9624 16.9964 17.1424C12.9731 21.1216 10.7565 26.4119 10.7565 32.0345C10.7565 37.6571 12.9731 42.9504 16.9964 46.9296L20.7915 50.6831C21.5992 51.4819 22.5272 51.9027 23.4798 51.9027C24.8332 51.9027 26.0757 51.0154 26.5689 49.6982C27.1331 48.195 26.6244 46.5789 25.2094 45.3745C24.2321 44.5421 23.4737 43.856 22.8262 43.2127L21.7904 42.1881C19.0465 39.4744 17.5359 35.8673 17.5359 32.0345C17.5359 28.2017 19.0465 24.5946 21.7904 21.8808C22.5796 21.1002 23.4582 20.4081 24.3985 19.8318V19.8348Z" fill="#006FB9"/>
<path d="M61.1103 29.9946C59.2605 29.9946 57.7529 31.4826 57.7529 33.3152C57.7529 35.1477 59.2574 36.6357 61.1103 36.6357C62.9631 36.6357 64.4676 35.1477 64.4676 33.3152C64.4676 31.4826 62.9631 29.9946 61.1103 29.9946Z" fill="#006FB9"/>
<path d="M6.71159 33.3152C6.71159 31.4857 5.20711 29.9946 3.35425 29.9946C1.5014 29.9946 0 31.4826 0 33.3152C0 35.1477 1.50448 36.6357 3.35734 36.6357C5.21019 36.6357 6.71468 35.1477 6.71468 33.3152H6.71159Z" fill="#006FB9"/>
<path d="M29.4144 14.8796C29.4144 16.7091 30.9189 18.2001 32.7718 18.2001C34.6246 18.2001 36.1291 16.7121 36.1291 14.8796C36.1291 13.0471 34.6246 11.5591 32.7718 11.5591C30.9189 11.5591 29.4144 13.0471 29.4144 14.8796Z" fill="#006FB9"/>
</svg>
