<svg width="33" height="33" viewBox="0 0 33 33" fill="none" xmlns="http://www.w3.org/2000/svg">
<rect x="6" y="6" width="21" height="20" fill="#006FB9"/>
<path fill-rule="evenodd" clip-rule="evenodd" d="M0 16.5C0 12.1239 1.73839 7.92709 4.83274 4.83274C7.92709 1.73839 12.1239 0 16.5 0C20.8761 0 25.0729 1.73839 28.1673 4.83274C31.2616 7.92709 33 12.1239 33 16.5C33 20.8761 31.2616 25.0729 28.1673 28.1673C25.0729 31.2616 20.8761 33 16.5 33C12.1239 33 7.92709 31.2616 4.83274 28.1673C1.73839 25.0729 0 20.8761 0 16.5ZM15.5584 23.562L25.058 11.6864L23.342 10.3136L15.2416 20.4358L9.504 15.6552L8.096 17.3448L15.5584 23.5642V23.562Z" fill="#DCE9FA"/>
</svg>
