<svg width="30" height="30" viewBox="0 0 30 30" fill="none" xmlns="http://www.w3.org/2000/svg">
    <path d="M26.8899 9.05847V21.728C26.8899 22.208 26.6992 22.6684 26.3598 23.0078C26.0203 23.3473 25.56 23.538 25.0799 23.538H5.17065C4.69063 23.538 4.23026 23.3473 3.89084 23.0078C3.55141 22.6684 3.36072 22.208 3.36072 21.728V9.05847M26.8899 9.05847C26.8899 8.57845 26.6992 8.11808 26.3598 7.77865C26.0203 7.43922 25.56 7.24854 25.0799 7.24854H5.17065C4.69063 7.24854 4.23026 7.43922 3.89084 7.77865C3.55141 8.11808 3.36072 8.57845 3.36072 9.05847M26.8899 9.05847L16.1552 16.4901C15.8525 16.6995 15.4933 16.8116 15.1253 16.8116C14.7573 16.8116 14.3981 16.6995 14.0954 16.4901L3.36072 9.05847" stroke="white" stroke-width="1.80994" stroke-linecap="round" stroke-linejoin="round"/>
</svg>
