<svg width="24" height="24" viewBox="0 0 24 24" fill="none" xmlns="http://www.w3.org/2000/svg">
<path d="M10.9522 19.0025L10.9509 19.0013C8.40865 16.696 6.37143 14.844 4.95921 13.1162C3.55693 11.4006 2.86572 9.91843 2.86572 8.36793C2.86572 5.83943 4.832 3.8808 7.35285 3.8808C8.78514 3.8808 10.1748 4.55225 11.0778 5.60441L11.7646 6.40454L12.4513 5.60441C13.3543 4.55225 14.744 3.8808 16.1763 3.8808C18.6971 3.8808 20.6634 5.83943 20.6634 8.36793C20.6634 9.91843 19.9722 11.4006 18.5699 13.1162C17.1577 14.844 15.1205 16.696 12.5782 19.0013L12.5769 19.0025L11.7646 19.742L10.9522 19.0025Z" stroke="#949494" stroke-width="1.80994"/>
</svg>
