<svg width="33" height="33" viewBox="0 0 33 33" fill="none" xmlns="http://www.w3.org/2000/svg">
<path d="M16.4998 12.2042C14.1344 12.2042 12.204 14.1345 12.204 16.5C12.204 18.8654 14.1344 20.7958 16.4998 20.7958C18.8652 20.7958 20.7956 18.8654 20.7956 16.5C20.7956 14.1345 18.8652 12.2042 16.4998 12.2042ZM29.384 16.5C29.384 14.7211 29.4001 12.9583 29.3002 11.1826C29.2003 9.12007 28.7298 7.28961 27.2216 5.7814C25.7101 4.26998 23.8829 3.80269 21.8204 3.70279C20.0415 3.60289 18.2787 3.619 16.503 3.619C14.7241 3.619 12.9613 3.60289 11.1856 3.70279C9.12313 3.80269 7.29266 4.2732 5.78445 5.7814C4.27303 7.29283 3.80574 9.12007 3.70584 11.1826C3.60594 12.9615 3.62205 14.7243 3.62205 16.5C3.62205 18.2756 3.60594 20.0417 3.70584 21.8173C3.80574 23.8798 4.27625 25.7103 5.78445 27.2185C7.29588 28.7299 9.12313 29.1972 11.1856 29.2971C12.9645 29.397 14.7273 29.3809 16.503 29.3809C18.2819 29.3809 20.0447 29.397 21.8204 29.2971C23.8829 29.1972 25.7134 28.7267 27.2216 27.2185C28.733 25.7071 29.2003 23.8798 29.3002 21.8173C29.4033 20.0417 29.384 18.2789 29.384 16.5ZM16.4998 23.1096C12.8421 23.1096 9.89012 20.1577 9.89012 16.5C9.89012 12.8422 12.8421 9.89029 16.4998 9.89029C20.1575 9.89029 23.1095 12.8422 23.1095 16.5C23.1095 20.1577 20.1575 23.1096 16.4998 23.1096ZM23.3802 11.1632C22.5262 11.1632 21.8365 10.4736 21.8365 9.61959C21.8365 8.76558 22.5262 8.07593 23.3802 8.07593C24.2342 8.07593 24.9238 8.76558 24.9238 9.61959C24.9241 9.82237 24.8843 10.0232 24.8068 10.2106C24.7293 10.398 24.6156 10.5683 24.4723 10.7117C24.3289 10.8551 24.1586 10.9688 23.9712 11.0463C23.7838 11.1237 23.5829 11.1635 23.3802 11.1632Z" fill="white"/>
</svg>
