<svg width="24px" height="24px" viewBox="0 0 24 24" xmlns="http://www.w3.org/2000/svg"><path d="M12,2.00026157 C17.6338028,2.00026157 22,6.12702213 22,11.7004628 C22,17.2739034 17.6338028,21.400664 12,21.400664 C10.9879276,21.400664 10.0160966,21.2678672 9.10462777,21.0163581 C8.96297787,20.9777264 8.81488934,20.9790141 8.67478471,21.0191911 L8.57142857,21.0565996 L6.58752515,21.9318511 C6.10085513,22.145005 5.55582715,21.8347057 5.47467864,21.3275588 L5.46478873,21.2236016 L5.41046278,19.4449296 C5.40241449,19.2256137 5.30382294,19.0223944 5.14084507,18.8755131 C3.19517103,17.1350704 2,14.6159557 2,11.7004628 C2,6.12702213 6.36619718,2.00026157 12,2.00026157 Z M17.253283,9.0610136 L17.1813093,9.10789778 L13.8095103,11.6716333 C13.6100624,11.8224413 13.344759,11.8429418 13.1274066,11.7302482 L13.0375231,11.6737877 L10.5409296,9.79730566 C9.83417073,9.26624615 8.83969869,9.4135366 8.31110884,10.0994288 L8.22281781,10.2260312 L5.08326007,15.2156207 C4.7960143,15.668725 5.30971138,16.1779033 5.74671703,15.9389864 L5.81869072,15.8921022 L9.19048972,13.3283667 C9.38993765,13.1775587 9.65524103,13.1570582 9.87259341,13.2697518 L9.96247686,13.3262123 L12.4590704,15.2026943 C13.1658293,15.7337538 14.1603013,15.5864634 14.6888912,14.9005712 L14.7771822,14.7739688 L17.9167399,9.78437926 C18.2039857,9.331275 17.6902886,8.82209668 17.253283,9.0610136 Z" fill="#b2b2b2"></path></svg>