<svg width="24" height="25" viewBox="0 0 24 25" fill="none" xmlns="http://www.w3.org/2000/svg">
<path d="M5.07261 10.3578C6.9548 14.4566 10.2992 17.7052 14.4509 19.4675L15.1176 19.7646C15.8559 20.0933 16.6865 20.1509 17.463 19.9273C18.2396 19.7036 18.9123 19.2131 19.3627 18.542L20.2342 17.244C20.3706 17.0404 20.4258 16.7932 20.389 16.5509C20.3521 16.3087 20.2259 16.089 20.0352 15.9352L17.0823 13.5529C16.9795 13.4699 16.8609 13.4087 16.7338 13.3727C16.6067 13.3368 16.4736 13.3269 16.3426 13.3436C16.2116 13.3604 16.0853 13.4034 15.9713 13.4702C15.8573 13.537 15.758 13.6261 15.6794 13.7323L14.7656 14.9646C12.4202 13.8062 10.5217 11.9074 9.36374 9.56172L10.5951 8.64801C10.7012 8.56934 10.7904 8.47004 10.8571 8.35607C10.9239 8.2421 10.967 8.1158 10.9837 7.98477C11.0005 7.85374 10.9906 7.72067 10.9547 7.59356C10.9187 7.46645 10.8574 7.34792 10.7745 7.24508L8.39219 4.29217C8.23836 4.10144 8.01869 3.97523 7.77645 3.93839C7.5342 3.90155 7.28694 3.95677 7.08338 4.09315L5.77653 4.96961C5.10144 5.42233 4.60898 6.10001 4.38689 6.88191C4.1648 7.66382 4.22749 8.49918 4.5638 9.23918L5.07261 10.3578Z" fill="white"/>
</svg>
