<svg width="19" height="15" viewBox="0 0 19 15" fill="none" xmlns="http://www.w3.org/2000/svg">
<path d="M10.1271 2.40243C10.1271 1.47151 10.8735 0.725098 11.8044 0.725098H14.7397C15.6623 0.725098 16.4171 1.4799 16.4171 2.40243V4.21395C15.4442 4.5578 14.7397 5.48033 14.7397 6.5706V8.27309H10.1271V2.40243ZM4.67575 6.56221V8.27309H9.28841V2.40243C9.28841 1.47151 8.542 0.725098 7.61108 0.725098H4.67575C3.75322 0.725098 2.99842 1.4799 2.99842 2.40243V4.20556C3.97127 4.54941 4.67575 5.48033 4.67575 6.56221ZM16.9706 4.94359C16.1487 5.07777 15.5784 5.85773 15.5784 6.6964V9.11176H3.83709V6.59576C3.83709 6.1509 3.66037 5.72427 3.34581 5.40971C3.03125 5.09515 2.60461 4.91843 2.15975 4.91843C1.7149 4.91843 1.28826 5.09515 0.973701 5.40971C0.65914 5.72427 0.482422 6.1509 0.482422 6.59576V10.7891C0.482422 11.7116 1.23722 12.4664 2.15975 12.4664V14.1438H3.83709V12.4664H15.5784V14.1438H17.2557V12.4664C18.1783 12.4664 18.9331 11.7116 18.9331 10.7891V6.59576C18.9331 5.58097 18.0189 4.76747 16.9706 4.94359Z" fill="#006FB9"/>
</svg>
