<svg width="27" height="27" viewBox="0 0 27 27" fill="none" xmlns="http://www.w3.org/2000/svg">
<path d="M10.6463 13.2225C10.6463 13.9408 10.361 14.6297 9.85309 15.1376C9.34518 15.6455 8.6563 15.9308 7.93801 15.9308C7.21971 15.9308 6.53084 15.6455 6.02293 15.1376C5.51502 14.6297 5.22968 13.9408 5.22968 13.2225C5.22968 12.5042 5.51502 11.8153 6.02293 11.3074C6.53084 10.7995 7.21971 10.5142 7.93801 10.5142C8.6563 10.5142 9.34518 10.7995 9.85309 11.3074C10.361 11.8153 10.6463 12.5042 10.6463 13.2225Z" stroke="#949494" stroke-width="1.8"/>
<path d="M16.063 7.26416L10.6464 11.0558M16.063 19.1808L10.6464 15.3892" stroke="#949494" stroke-width="1.8" stroke-linecap="round"/>
<path d="M21.4797 20.2641C21.4797 20.9824 21.1943 21.6712 20.6864 22.1792C20.1785 22.6871 19.4896 22.9724 18.7713 22.9724C18.053 22.9724 17.3642 22.6871 16.8562 22.1792C16.3483 21.6712 16.063 20.9824 16.063 20.2641C16.063 19.5458 16.3483 18.8569 16.8562 18.349C17.3642 17.8411 18.053 17.5557 18.7713 17.5557C19.4896 17.5557 20.1785 17.8411 20.6864 18.349C21.1943 18.8569 21.4797 19.5458 21.4797 20.2641ZM21.4797 6.18075C21.4797 6.89904 21.1943 7.58792 20.6864 8.09583C20.1785 8.60374 19.4896 8.88908 18.7713 8.88908C18.053 8.88908 17.3642 8.60374 16.8562 8.09583C16.3483 7.58792 16.063 6.89904 16.063 6.18075C16.063 5.46245 16.3483 4.77358 16.8562 4.26566C17.3642 3.75775 18.053 3.47241 18.7713 3.47241C19.4896 3.47241 20.1785 3.75775 20.6864 4.26566C21.1943 4.77358 21.4797 5.46245 21.4797 6.18075Z" stroke="#949494" stroke-width="1.8"/>
</svg>
