<svg width="16" height="15" viewBox="0 0 16 15" fill="none" xmlns="http://www.w3.org/2000/svg">
<path d="M0.961139 13.9824C0.961139 14.4456 1.33662 14.8211 1.7998 14.8211L9.3478 14.8211C9.81098 14.8211 10.1865 14.4456 10.1865 13.9824C10.1865 13.5192 9.81098 13.1438 9.3478 13.1438L2.63847 13.1438L2.63847 6.43443C2.63847 5.97125 2.26299 5.59576 1.7998 5.59576C1.33662 5.59576 0.961139 5.97125 0.961139 6.43443L0.961139 13.9824ZM15.2185 1.40244C15.2185 0.939254 14.843 0.56377 14.3798 0.56377L6.8318 0.563771C6.36862 0.563771 5.99313 0.939254 5.99313 1.40244C5.99313 1.86562 6.36862 2.2411 6.8318 2.2411H13.5411V8.95043C13.5411 9.41361 13.9166 9.78909 14.3798 9.78909C14.843 9.78909 15.2185 9.41361 15.2185 8.95043L15.2185 1.40244ZM2.39283 14.5754L14.9728 1.99546L13.7868 0.80941L1.20678 13.3894L2.39283 14.5754Z" fill="#006FB9"/>
</svg>
