<svg width="183" height="82" viewBox="0 0 183 82" fill="none" xmlns="http://www.w3.org/2000/svg">
<path d="M79.8921 25.5418C79.8921 18.4346 83.2396 14.0803 88.8243 14.0803C94.409 14.0803 97.7566 18.2748 97.7566 25.5027C97.7566 32.7305 94.409 37.0424 88.8243 37.0424C83.2396 37.0424 79.8921 32.8088 79.8921 25.5418ZM91.9733 25.5418C91.9733 21.468 90.7782 19.2729 88.8243 19.2729C86.8705 19.2729 85.6754 21.468 85.6754 25.5027C85.6754 29.5373 86.8705 31.8531 88.8634 31.8531C90.8563 31.8531 91.9733 29.6156 91.9733 25.5418Z" fill="white"/>
<path d="M98.6328 19.4728V14.5607H111.111V19.4728H106.647V29.8971C106.647 31.3355 107.285 31.8149 108.281 31.8149C108.92 31.8149 109.877 31.6551 110.753 31.2572L111.671 36.091C110.317 36.7303 108.402 37.0499 107.207 37.0499C103.019 37.0499 100.948 34.8124 100.948 30.3407V19.4793H98.6361L98.6328 19.4728Z" fill="white"/>
<path d="M112.573 19.4728V14.5607H125.052V19.4728H120.587V29.8971C120.587 31.3355 121.225 31.8149 122.222 31.8149C122.86 31.8149 123.818 31.6551 124.693 31.2572L125.612 36.091C124.257 36.7303 122.342 37.0499 121.147 37.0499C116.96 37.0499 114.889 34.8124 114.889 30.3407V19.4793H112.576L112.573 19.4728Z" fill="white"/>
<path d="M143.812 21.7492V36.5636H138.071V22.3461C138.071 20.1901 137.273 19.3518 135.957 19.3518C134.642 19.3518 133.447 20.4706 133.046 22.6266V36.5636H127.344V7.09125H133.046V16.9154C134.124 15.1965 135.798 14.1201 138.028 14.1201C141.737 14.1201 143.808 16.6349 143.808 21.7492H143.812Z" fill="white"/>
<path d="M146.062 25.5418C146.062 18.4346 149.413 14.0803 154.994 14.0803C160.576 14.0803 163.927 18.2748 163.927 25.5027C163.927 32.7305 160.579 37.0424 154.994 37.0424C149.41 37.0424 146.062 32.8088 146.062 25.5418ZM158.143 25.5418C158.143 21.468 156.948 19.2729 154.994 19.2729C153.04 19.2729 151.845 21.468 151.845 25.5027C151.845 29.5373 153.04 31.8531 155.033 31.8531C157.026 31.8531 158.143 29.6156 158.143 25.5418Z" fill="white"/>
<path d="M171.807 36.563H166.105V22.665C166.105 17.5931 169.176 14.0803 174.399 14.0803C179.342 14.0803 182.732 17.2735 182.732 22.665V36.563H177.03V22.5052C177.03 20.5873 176.034 19.312 174.399 19.312C172.885 19.312 171.807 20.5091 171.807 22.5052V36.563Z" fill="white"/>
<path d="M79.7715 62.493V58.9378L87.2677 45.4802H80.0125V40.4898H94.4447V44.045L86.9095 57.5026H94.5652V62.493H79.7747H79.7715Z" fill="white"/>
<path d="M95.4966 51.4719C95.4966 44.3647 98.8474 40.0104 104.429 40.0104C110.01 40.0104 113.361 44.2049 113.361 51.4327C113.361 58.6606 110.014 62.9725 104.429 62.9725C98.8441 62.9725 95.4966 58.7388 95.4966 51.4719ZM107.578 51.4719C107.578 47.398 106.383 45.2029 104.429 45.2029C102.475 45.2029 101.28 47.398 101.28 51.4327C101.28 55.4674 102.475 57.7832 104.468 57.7832C106.461 57.7832 107.578 55.5457 107.578 51.4751V51.4719Z" fill="white"/>
<path d="M121.241 62.493H115.54V48.5951C115.54 43.5232 118.61 40.0104 123.834 40.0104C128.777 40.0104 132.167 43.2035 132.167 48.5951V62.493H126.465V48.4353C126.465 46.5174 125.468 45.2421 123.834 45.2421C122.319 45.2421 121.241 46.4391 121.241 48.4353V62.493Z" fill="white"/>
<path d="M151.874 48.6766V62.493H146.172V58.6182H140.949V62.493H135.247V48.6766C135.247 43.1644 138.595 40.0104 143.58 40.0104C148.566 40.0104 151.874 43.4449 151.874 48.6766ZM140.949 54.6259H146.172V48.357C146.172 46.3608 145.094 45.2029 143.58 45.2029C141.945 45.2029 140.949 46.4815 140.949 48.357V54.6259Z" fill="white"/>
<path d="M62.4313 42.1994H62.1839C60.738 42.1994 59.5071 43.0344 58.9665 44.3782C57.6054 47.7768 55.5929 50.8232 52.9878 53.4326L31.2417 75.214C30.5872 75.8663 30.229 76.7404 30.229 77.67C30.229 78.5996 30.5905 79.4704 31.2417 80.126L31.4046 80.2891C32.0591 80.9447 32.9285 81.3035 33.8566 81.3035C34.7847 81.3035 35.6411 80.948 36.2924 80.3022C36.3021 80.2924 36.3119 80.2826 36.3249 80.2695L58.0548 58.5045C61.3763 55.1776 63.9325 51.2897 65.6552 46.9549C66.0915 45.8525 65.9678 44.7044 65.3035 43.7226C64.6392 42.7408 63.6199 42.1994 62.4346 42.1994H62.4313Z" fill="white"/>
<path d="M4.34387 29.0745H4.58484C6.13488 29.0745 7.47 28.0731 7.90961 26.5826C9.17634 22.2739 11.534 18.3077 14.7252 15.108C19.8345 9.99048 26.6273 7.1724 33.8532 7.1724C41.0791 7.1724 47.8751 9.99048 52.9812 15.108C56.1724 18.3045 58.53 22.2739 59.8 26.5826C60.2364 28.0731 61.5747 29.0745 63.1248 29.0745H63.3657C64.4859 29.0745 65.4694 28.582 66.1402 27.685C66.798 26.8076 66.9999 25.7476 66.7101 24.6941C66.7068 24.6712 66.7003 24.6517 66.6938 24.6288C65.0949 19.146 62.1055 14.1002 58.0481 10.0361C51.5874 3.565 42.9938 0 33.8564 0C24.719 0 16.1255 3.565 9.66154 10.0361C5.60409 14.1002 2.61473 19.146 1.01585 24.6288C0.703239 25.7052 0.898621 26.788 1.56944 27.685C2.24025 28.582 3.22693 29.0745 4.34387 29.0745Z" fill="white"/>
<path d="M50.0309 49.965C50.0309 49.965 50.0602 49.9324 50.0765 49.9161C50.1318 49.8508 50.3891 49.5475 50.6789 49.2083C51.2162 48.5788 51.5744 48.1613 51.6493 48.0634C54.6842 44.1429 56.3548 39.2472 56.3548 34.2699C56.3548 28.2554 54.0134 22.5964 49.7639 18.3366C48.7055 17.2766 47.5463 16.3242 46.3219 15.5088C45.739 15.1206 45.0779 14.9152 44.4039 14.9152C43.8372 14.9152 43.2837 15.0554 42.7626 15.3359C41.6164 15.9491 40.9326 17.094 40.9326 18.3954V18.6726C40.9326 19.8598 41.4731 20.8807 42.4533 21.5461C43.2543 22.0908 44.0098 22.7171 44.7002 23.4085C47.5984 26.3114 49.194 30.17 49.194 34.2699C49.194 37.6718 48.051 41.015 45.9702 43.6928C45.5208 44.1625 37.3343 52.4602 33.013 56.8373L25.9369 63.9249C25.8392 64.0228 25.709 64.0782 25.5657 64.0782C25.4224 64.0782 25.2954 64.0228 25.1977 63.9249L14.7252 53.4354C12.1201 50.8261 10.1077 47.7797 8.7465 44.381C8.20594 43.0372 6.97503 42.2022 5.52919 42.2022H5.28171C4.09639 42.2022 3.0804 42.7437 2.41284 43.7254C1.75179 44.6974 1.6248 45.8357 2.05138 46.9317C2.05138 46.9382 2.05789 46.948 2.06115 46.9545C3.78052 51.2892 6.33678 55.1739 9.66154 58.504L21.9576 70.8201C22.9183 71.7855 24.2013 72.3139 25.569 72.3139C26.9366 72.3139 28.2164 71.7823 29.1803 70.8201L38.08 61.906L50.0309 49.9683V49.965Z" fill="white"/>
<path d="M25.7708 21.2166C26.8096 20.5708 27.4055 19.4944 27.4055 18.268V17.9973C27.4055 16.7024 26.7607 15.6 25.634 14.9672C25.1065 14.6704 24.5171 14.5139 23.9375 14.5139C23.3155 14.5139 22.6968 14.69 22.1432 15.0259C22.1367 15.0259 22.1334 15.0325 22.1302 15.0357C20.616 15.962 19.2125 17.0743 17.9522 18.3365C13.7027 22.593 11.3613 28.252 11.3613 34.2665C11.3613 40.281 13.7027 45.9433 17.9522 50.1997L21.9608 54.2148C22.814 55.0694 23.7942 55.5195 24.8004 55.5195C26.23 55.5195 27.5423 54.5704 28.0633 53.1613C28.6592 51.5533 28.1219 49.8246 26.6272 48.5363C25.595 47.6458 24.7939 46.912 24.1101 46.2238L23.0159 45.1278C20.1177 42.225 18.5221 38.3664 18.5221 34.2665C18.5221 30.1666 20.1177 26.308 23.0159 23.4052C23.8495 22.5702 24.7776 21.8298 25.7708 21.2133V21.2166Z" fill="white"/>
<path d="M64.5481 32.085C62.5943 32.085 61.002 33.6767 61.002 35.637C61.002 37.5972 62.5911 39.1889 64.5481 39.1889C66.5052 39.1889 68.0943 37.5972 68.0943 35.637C68.0943 33.6767 66.5052 32.085 64.5481 32.085Z" fill="white"/>
<path d="M7.08914 35.637C7.08914 33.68 5.50002 32.085 3.54294 32.085C1.58586 32.085 0 33.6767 0 35.637C0 37.5972 1.58911 39.1889 3.5462 39.1889C5.50328 39.1889 7.09239 37.5972 7.09239 35.637H7.08914Z" fill="white"/>
<path d="M31.0693 15.9169C31.0693 17.8739 32.6584 19.4688 34.6155 19.4688C36.5726 19.4688 38.1617 17.8771 38.1617 15.9169C38.1617 13.9566 36.5726 12.3649 34.6155 12.3649C32.6584 12.3649 31.0693 13.9566 31.0693 15.9169Z" fill="white"/>
</svg>
