<svg width="33" height="33" viewBox="0 0 33 33" fill="none" xmlns="http://www.w3.org/2000/svg">
<path d="M13.75 20.625L20.8862 16.5L13.75 12.375V20.625ZM29.645 9.85875C29.8237 10.505 29.9475 11.3712 30.03 12.4712C30.1262 13.5712 30.1675 14.52 30.1675 15.345L30.25 16.5C30.25 19.5113 30.03 21.725 29.645 23.1413C29.3012 24.3787 28.5037 25.1762 27.2663 25.52C26.62 25.6987 25.4375 25.8225 23.6225 25.905C21.835 26.0012 20.1987 26.0425 18.6863 26.0425L16.5 26.125C10.7387 26.125 7.15 25.905 5.73375 25.52C4.49625 25.1762 3.69875 24.3787 3.355 23.1413C3.17625 22.495 3.0525 21.6288 2.97 20.5288C2.87375 19.4288 2.8325 18.48 2.8325 17.655L2.75 16.5C2.75 13.4887 2.97 11.275 3.355 9.85875C3.69875 8.62125 4.49625 7.82375 5.73375 7.48C6.38 7.30125 7.5625 7.1775 9.3775 7.095C11.165 6.99875 12.8012 6.9575 14.3137 6.9575L16.5 6.875C22.2612 6.875 25.85 7.095 27.2663 7.48C28.5037 7.82375 29.3012 8.62125 29.645 9.85875Z" fill="white"/>
</svg>
